<svg width="12" height="12" viewBox="0 0 12 12" fill="none" xmlns="http://www.w3.org/2000/svg">
<path d="M2.85 5.386C3.27933 6.20733 3.82533 6.94933 4.488 7.612C5.15067 8.27467 5.89267 8.82067 6.714 9.25L8.002 7.962C8.07667 7.878 8.17 7.822 8.282 7.794C8.394 7.766 8.50133 7.77533 8.604 7.822C9.22 8.03667 9.91067 8.144 10.676 8.144C10.8347 8.144 10.97 8.2 11.082 8.312C11.194 8.424 11.25 8.55933 11.25 8.718V10.776C11.25 10.9347 11.194 11.07 11.082 11.182C10.97 11.294 10.8347 11.35 10.676 11.35C9.332 11.35 8.044 11.0887 6.812 10.566C5.62667 10.062 4.57667 9.35267 3.662 8.438C2.74733 7.52333 2.038 6.47333 1.534 5.288C1.01133 4.056 0.75 2.768 0.75 1.424C0.75 1.26533 0.806 1.13 0.918 1.018C1.03 0.906 1.16533 0.85 1.324 0.85H3.382C3.54067 0.85 3.676 0.906 3.788 1.018C3.9 1.13 3.956 1.26533 3.956 1.424C3.956 2.18933 4.06333 2.88 4.278 3.496C4.306 3.59867 4.31067 3.706 4.292 3.818C4.27333 3.93 4.222 4.02333 4.138 4.098L2.85 5.386Z" fill="#19B885"/>
</svg>
