<svg width="12" height="10" viewBox="0 0 12 10" fill="none" xmlns="http://www.w3.org/2000/svg">
<path d="M10.676 2.776V1.6L6 4.526L1.324 1.6V2.776L6 5.674L10.676 2.776ZM10.676 0.424C10.9933 0.424 11.264 0.540666 11.488 0.773999C11.712 1.00733 11.824 1.28267 11.824 1.6V8.6C11.824 8.91733 11.712 9.19267 11.488 9.426C11.264 9.65933 10.9933 9.776 10.676 9.776H1.324C1.00667 9.776 0.736 9.65933 0.512 9.426C0.288 9.19267 0.176 8.91733 0.176 8.6V1.6C0.176 1.28267 0.288 1.00733 0.512 0.773999C0.736 0.540666 1.00667 0.424 1.324 0.424H10.676Z" fill="#19B885"/>
</svg>
