<svg width="34" height="34" viewBox="0 0 34 34" fill="none" xmlns="http://www.w3.org/2000/svg">
<circle cx="16.7358" cy="16.7358" r="16.7358" fill="#19B885"/>
<path d="M26 11.6889L24.2727 11.2414L25.1364 9.45128L23.0084 10.0778C22.4559 9.54364 21.7646 9.18881 21.0197 9.05712C20.2749 8.92542 19.5092 9.02263 18.817 9.33673C18.1249 9.65084 17.5367 10.1681 17.1249 10.8247C16.7132 11.4813 16.4959 12.2484 16.5 13.0315V13.9265C13.4436 14.5799 10.7706 12.8524 8.29545 9.8988C7.86364 12.2856 8.29545 14.0757 9.59091 15.2691L7 14.8215C7.34977 16.6734 8.17627 18.1332 10.4545 18.4017L8.29545 19.2968C9.15909 21.0869 10.5115 21.3643 12.6136 21.5344C10.9787 22.745 9.00884 23.3732 7 23.3245C18.0157 28.3985 24.2727 20.9401 24.2727 14.374V13.1854L26 11.6889Z" fill="white"/>
</svg>
