<svg width="34" height="34" viewBox="0 0 34 34" fill="none" xmlns="http://www.w3.org/2000/svg">
<circle cx="16.7358" cy="16.7358" r="16.7358" fill="#19B885"/>
<path d="M12.3325 23.349H8.23056V12.6841H12.3325V23.349ZM19.7159 15.9656C19.2807 15.9656 18.8634 16.1385 18.5557 16.4462C18.248 16.7539 18.0751 17.1712 18.0751 17.6063V23.349H13.9732V12.6841H18.0751V13.9023C18.9909 13.1262 20.1481 12.6926 21.3484 12.6759C23.7784 12.6759 25.4585 14.4807 25.4585 17.8894V23.349H21.3566V17.6063C21.3566 17.1712 21.1838 16.7539 20.8761 16.4462C20.5684 16.1385 20.151 15.9656 19.7159 15.9656ZM12.3325 8.99236C12.3325 9.398 12.2122 9.79453 11.9868 10.1318C11.7615 10.4691 11.4411 10.732 11.0664 10.8872C10.6916 11.0424 10.2792 11.083 9.88139 11.0039C9.48355 10.9248 9.1181 10.7294 8.83127 10.4426C8.54444 10.1558 8.34911 9.79032 8.26997 9.39248C8.19083 8.99463 8.23145 8.58225 8.38668 8.20749C8.54191 7.83273 8.80479 7.51241 9.14206 7.28705C9.47934 7.06169 9.87587 6.94141 10.2815 6.94141C10.8255 6.94141 11.3471 7.15749 11.7318 7.54212C12.1164 7.92674 12.3325 8.44841 12.3325 8.99236Z" fill="white"/>
</svg>
