<svg width="34" height="34" viewBox="0 0 34 34" fill="none" xmlns="http://www.w3.org/2000/svg">
<circle cx="16.7358" cy="16.7358" r="16.7358" fill="#19B885"/>
<g clip-path="url(#clip0_464_46)">
<path d="M20.3901 14.0893H17.4139V12.7644C17.4007 12.6658 17.4093 12.5655 17.4392 12.4706C17.4691 12.3757 17.5195 12.2886 17.5869 12.2153C17.6542 12.1421 17.7368 12.0846 17.8289 12.047C17.921 12.0093 18.0202 11.9923 18.1196 11.9973C18.4111 11.9973 20.2032 12.0043 20.2032 12.0043V9.20801H17.1845C14.4461 9.20801 13.9273 11.2818 13.9273 12.5935V14.0893H11.8353V16.8786H13.9273V25.2464H17.4139V16.8786H20.0993L20.3901 14.0893Z" fill="white"/>
</g>
<defs>
<clipPath id="clip0_464_46">
<rect width="16.7358" height="16.7358" fill="white" transform="translate(7 8.85938)"/>
</clipPath>
</defs>
</svg>
