<svg width="34" height="34" viewBox="0 0 34 34" fill="none" xmlns="http://www.w3.org/2000/svg">
<circle cx="16.7358" cy="16.7358" r="16.7358" fill="#19B885"/>
<g clip-path="url(#clip0_464_47)">
<path d="M25.351 12.9981C25.3511 12.6647 25.2855 12.3346 25.158 12.0265C25.0305 11.7184 24.8435 11.4385 24.6078 11.2027C24.3721 10.9669 24.0922 10.7799 23.7842 10.6523C23.4761 10.5247 23.146 10.459 22.8126 10.459H10.9068C10.5735 10.4591 10.2434 10.5248 9.93547 10.6525C9.62753 10.7801 9.34775 10.9672 9.1121 11.203C8.87646 11.4388 8.68956 11.7187 8.56208 12.0267C8.43461 12.3347 8.36904 12.6648 8.36914 12.9981V19.7326C8.36895 20.066 8.43444 20.3962 8.56187 20.7043C8.68931 21.0124 8.87619 21.2923 9.11184 21.5282C9.3475 21.764 9.62731 21.9512 9.9353 22.0789C10.2433 22.2066 10.5734 22.2724 10.9068 22.2725H22.8126C23.1461 22.2725 23.4763 22.2067 23.7843 22.0791C24.0924 21.9514 24.3723 21.7643 24.608 21.5284C24.8438 21.2926 25.0307 21.0126 25.1582 20.7044C25.2857 20.3963 25.3512 20.066 25.351 19.7326V12.9981ZM15.0142 19.274V12.88L20.0121 16.0778L15.0142 19.274Z" fill="white"/>
</g>
<defs>
<clipPath id="clip0_464_47">
<rect width="17.7202" height="17.7202" fill="white" transform="translate(9 5.875)"/>
</clipPath>
</defs>
</svg>
