<svg width="34" height="34" viewBox="0 0 34 34" fill="none" xmlns="http://www.w3.org/2000/svg">
<circle cx="16.7358" cy="16.7358" r="16.7358" fill="#19B885"/>
<g clip-path="url(#clip0_464_48)">
<circle cx="16.5" cy="17.5" r="10.5" fill="white"/>
<path d="M12.2994 13.4809H11.1397L14.3013 22.4181L16.0713 17.3601L14.699 13.4809H13.4754V12.6293H18.8938V13.4809H17.625L20.7866 22.4181L21.923 19.1704C23.4139 15.0094 20.7011 13.7133 20.7011 12.7847C20.7011 11.856 21.4539 11.1033 22.3825 11.1033C22.4327 11.1033 22.4815 11.106 22.5293 11.1105C20.956 9.62519 18.8344 8.71436 16.4999 8.71436C13.4496 8.71436 10.7626 10.2692 9.18753 12.6293H12.2993V13.4809H12.2994Z" fill="#19B885"/>
<path d="M7.71445 17.4997C7.71445 20.8633 9.60498 23.7849 12.3811 25.2612L8.41635 14.0537C7.96471 15.1118 7.71445 16.2765 7.71445 17.4997Z" fill="#19B885"/>
<path d="M24.146 13.1709C24.2717 13.9108 24.2336 14.7425 24.0408 15.5774H24.0757L23.9429 15.957C23.8642 16.2311 23.765 16.5114 23.6525 16.7869L20.6295 25.256C23.3998 23.7779 25.2855 20.8594 25.2855 17.5001C25.2855 15.926 24.8711 14.4488 24.146 13.1709Z" fill="#19B885"/>
<path d="M13.7904 25.859C14.6439 26.1354 15.5544 26.2854 16.5 26.2854C17.402 26.2854 18.2721 26.1493 19.0912 25.8968L16.5213 18.6323L13.7904 25.859Z" fill="#19B885"/>
<path d="M23.9246 10.0754C21.9414 8.09219 19.3046 7 16.5 7C13.6953 7 11.0585 8.09219 9.07536 10.0754C7.09219 12.0585 6 14.6953 6 17.5C6 20.3046 7.09219 22.9414 9.07536 24.9246C11.0585 26.9078 13.6954 28 16.5 28C19.3047 28 21.9414 26.9078 23.9246 24.9246C25.9078 22.9414 27 20.3046 27 17.5C27 14.6953 25.9078 12.0585 23.9246 10.0754ZM16.5 27.2593C11.1187 27.2593 6.7407 22.8813 6.7407 17.5C6.7407 12.1187 11.1187 7.7407 16.5 7.7407C21.8812 7.7407 26.2592 12.1187 26.2592 17.5C26.2592 22.8813 21.8813 27.2593 16.5 27.2593Z" fill="#19B885"/>
</g>
<defs>
<clipPath id="clip0_464_48">
<rect width="21" height="21" fill="white" transform="translate(6 7)"/>
</clipPath>
</defs>
</svg>
