<svg width="208" height="29" viewBox="0 0 208 29" fill="none" xmlns="http://www.w3.org/2000/svg">
<path d="M0 18.4814L2.18278 15.8888C4.15893 17.5978 6.1298 18.5661 8.69403 18.5661C10.9351 18.5661 12.3497 17.5343 12.3497 15.9735V15.9153C12.3497 14.4444 11.5232 13.6508 7.69271 12.7407C3.30066 11.6825 0.8053 10.3862 0.8053 6.58726V6.52906C0.8053 2.99996 3.75099 0.555519 7.85164 0.555519C10.5767 0.500953 13.2316 1.4204 15.3377 3.14811L13.3934 5.9153C11.5391 4.53435 9.68476 3.7989 7.79337 3.7989C5.67416 3.7989 4.43443 4.88885 4.43443 6.24335V6.30155C4.43443 7.88885 5.37748 8.59785 9.3245 9.53964C13.6848 10.5978 15.9576 12.1851 15.9576 15.5714V15.6296C15.9576 19.4867 12.9218 21.783 8.58807 21.783C5.41302 21.7919 2.34953 20.6142 0 18.4814Z" fill="#00BF6F"/>
<path d="M18.3516 15.8359V5.94702H21.9171V14.7777C21.9171 17.1904 23.1251 18.5766 25.2496 18.5766C27.3741 18.5766 28.7569 17.1322 28.7569 14.7142V5.94702H32.3224V21.4867H28.7569V19.8994C28.1385 20.5586 27.3818 21.0731 26.541 21.4061C25.7001 21.739 24.796 21.8822 23.8933 21.8253C20.386 21.8095 18.3516 19.4391 18.3516 15.8359Z" fill="#00BF6F"/>
<path d="M36.1375 5.94713H39.7031V8.53972C40.6726 6.21168 42.4739 5.53443 45.213 5.65613V8.83072H45.0064C41.8806 8.83072 39.7084 10.9154 39.7084 15.5926V21.4868H36.1428L36.1375 5.94713Z" fill="#00BF6F"/>
<path d="M46.4842 5.94702H50.3146L54.5 16.7618L58.7384 5.94702H62.4788L56.1212 21.6084H52.9106L46.4842 5.94702Z" fill="#00BF6F"/>
<path d="M62.4851 13.7726V13.7144C62.4851 9.26993 65.6639 5.61914 70.0878 5.61914C75.0414 5.61914 77.5474 9.50274 77.5474 13.9789C77.5474 14.3017 77.5156 14.6244 77.4891 14.9789H66.0507C66.4322 17.508 68.2335 18.926 70.5328 18.926C71.3305 18.9326 72.1205 18.7706 72.851 18.4505C73.5815 18.1304 74.2359 17.6596 74.7712 17.0689L76.8374 18.9101C76.0739 19.8516 75.1028 20.6041 73.9999 21.1089C72.8971 21.6137 71.6924 21.8571 70.4798 21.8202C65.9659 21.8361 62.4851 18.5715 62.4851 13.7726ZM74.0083 12.6244C73.7752 10.3281 72.4189 8.53448 70.0613 8.53448C67.8785 8.53448 66.3527 10.2117 66.0242 12.6244H74.0083Z" fill="#00BF6F"/>
<path d="M96.4452 0.883545H100.307L106.586 11.3915L112.864 0.883545H116.705V21.4867H113.102V6.70894L106.586 17.1904H106.469L100.016 6.76714V21.4867H96.4505L96.4452 0.883545Z" fill="#00BF6F"/>
<path d="M119.28 13.8042V13.746C119.272 11.5485 120.139 9.43794 121.689 7.87861C123.239 6.31928 125.347 5.43892 127.547 5.4312C129.747 5.42349 131.861 6.28904 133.422 7.83745C134.984 9.38587 135.865 11.4903 135.873 13.6878V13.746C135.869 14.8277 135.649 15.8978 135.226 16.8934C134.802 17.8891 134.184 18.7903 133.407 19.5443C132.631 20.2982 131.711 20.8898 130.702 21.2842C129.694 21.6786 128.617 21.868 127.534 21.8413C126.46 21.8688 125.391 21.6813 124.391 21.2897C123.39 20.8982 122.479 20.3105 121.709 19.5615C120.94 18.8124 120.329 17.9171 119.911 16.9283C119.494 15.9395 119.279 14.8772 119.28 13.8042ZM132.307 13.8042V13.746C132.307 11.0106 130.331 8.74072 127.539 8.74072C124.747 8.74072 122.85 10.9788 122.85 13.6878V13.746C122.85 16.455 124.827 18.7513 127.619 18.7513C130.48 18.7513 132.307 16.4815 132.307 13.8042Z" fill="#00BF6F"/>
<path d="M155.82 0H159.385V12.8307L165.838 5.95238H170.172L163.984 12.3016L170.379 21.5132H166.251L161.563 14.8042L159.38 17.0688V21.5132H155.814L155.82 0Z" fill="#00BF6F"/>
<path d="M170.093 13.7726V13.7144C170.093 9.26993 173.271 5.61914 177.695 5.61914C182.649 5.61914 185.155 9.50274 185.155 13.9789C185.155 14.3017 185.123 14.6244 185.097 14.9789H173.658C174.04 17.508 175.841 18.926 178.14 18.926C178.938 18.933 179.728 18.7711 180.459 18.451C181.189 18.1309 181.844 17.6598 182.379 17.0689L184.445 18.9101C183.681 19.8516 182.71 20.6041 181.607 21.1089C180.505 21.6137 179.3 21.8571 178.087 21.8202C173.568 21.8361 170.093 18.5715 170.093 13.7726ZM181.616 12.6244C181.383 10.3281 180.026 8.53448 177.669 8.53448C175.486 8.53448 173.96 10.2117 173.632 12.6244H181.616Z" fill="#00BF6F"/>
<path d="M90.0715 5.94702L85.7643 16.5449L81.4888 5.94702H77.7749L83.9046 21.1269L80.7047 28.9999H84.4186L93.7854 5.94702H90.0715Z" fill="#00BF6F"/>
<path d="M205.356 6.21161C204.985 6.2117 204.62 6.3064 204.296 6.48674C203.958 6.66731 203.679 6.94089 203.491 7.2751C203.31 7.59879 203.211 7.96237 203.205 8.3333C203.206 8.7043 203.303 9.06882 203.486 9.39151C203.671 9.72426 203.946 9.99768 204.281 10.1799C204.603 10.3656 204.968 10.4634 205.34 10.4634C205.712 10.4634 206.078 10.3656 206.4 10.1799C206.732 9.99712 207.006 9.72371 207.189 9.39151C207.372 9.06858 207.467 8.70408 207.467 8.3333C207.467 7.96253 207.372 7.59803 207.189 7.2751C207.006 6.93978 206.727 6.66566 206.389 6.48674C206.065 6.30748 205.7 6.21286 205.33 6.21161H205.356ZM205.33 5.78833C205.77 5.79136 206.202 5.90606 206.585 6.12166C206.992 6.33339 207.325 6.66129 207.544 7.06346C207.769 7.4508 207.888 7.89071 207.888 8.33859C207.888 8.78647 207.769 9.22639 207.544 9.61373C207.324 10.0125 206.995 10.3408 206.596 10.5608C206.208 10.7797 205.77 10.8945 205.324 10.8941C204.877 10.8924 204.438 10.7777 204.047 10.5608C203.648 10.3411 203.319 10.0127 203.099 9.61373C202.882 9.22762 202.767 8.79225 202.765 8.34918C202.764 7.89941 202.883 7.45748 203.11 7.06875C203.328 6.6683 203.66 6.34081 204.063 6.12695C204.449 5.91262 204.883 5.79804 205.324 5.79362" fill="#00BF6F"/>
<path d="M204.27 6.93119H205.547C205.849 6.91455 206.146 7.01715 206.373 7.21691C206.532 7.38359 206.618 7.60622 206.612 7.83595C206.619 8.03708 206.555 8.23424 206.431 8.39289C206.307 8.55154 206.131 8.66156 205.934 8.70368L206.707 9.76188H206.109L205.404 8.76188H204.773V9.76188H204.244L204.27 6.93119ZM205.51 8.32802C205.87 8.32802 206.098 8.13754 206.098 7.85183C206.098 7.54495 205.875 7.37564 205.505 7.37564H204.773V8.32802H205.51Z" fill="#00BF6F"/>
<path d="M197.679 5.94702L193.372 16.5449L189.091 5.94702H185.382L191.512 21.1269L188.312 28.9999H192.026L201.393 5.94702H197.679Z" fill="#00BF6F"/>
<path d="M152.201 11.5978V21.4867H148.636V12.656C148.62 10.2433 147.433 8.85703 145.314 8.85703C143.195 8.85703 141.806 10.3015 141.806 12.7142V21.4867H138.214V5.94697H141.78V7.53427C142.398 6.87506 143.155 6.36055 143.996 6.02759C144.837 5.69464 145.741 5.55147 146.644 5.60835C150.151 5.61893 152.201 7.97343 152.201 11.5978Z" fill="#00BF6F"/>
</svg>
