<svg width="168" height="29" viewBox="0 0 168 29" fill="none" xmlns="http://www.w3.org/2000/svg">
<g clip-path="url(#clip0_0_348)">
<path d="M78.625 29C77.9055 28.7712 77.1942 28.5425 76.6219 28.0113C76.0578 27.4883 76.0496 27.4883 76.3767 26.8101C77.3986 24.6447 78.4205 22.4793 79.4507 20.3221C79.5651 20.0852 79.5734 19.8972 79.4507 19.6521C77.5948 15.9994 75.7635 12.3387 73.8994 8.68614C73.7032 8.30209 73.7686 8.10598 74.0956 7.86084C74.8397 7.30519 75.6409 6.96199 76.5729 6.87211C76.9326 6.83942 77.0144 7.00285 77.1206 7.248C78.4369 10.1406 79.7613 13.0333 81.0858 15.9259C81.1431 16.0567 81.2084 16.1874 81.3066 16.3753C81.8134 15.1578 82.2958 13.9894 82.7781 12.8208C83.5385 10.9822 84.2988 9.14374 85.0346 7.28885C85.1899 6.89662 85.3862 6.81491 85.795 6.87211C86.6289 6.99468 87.3728 7.28067 88.0678 7.74644C88.3539 7.93438 88.3866 8.08146 88.2476 8.40015C86.8578 11.4889 85.4843 14.5859 84.1026 17.6746C82.4839 21.3109 80.8569 24.9471 79.2381 28.5833C79.1809 28.714 79.0747 28.8284 79.1155 28.9919C78.9438 29 78.7885 29 78.625 29Z" fill="#F38632"/>
<path d="M0.482422 20.2241C0.964783 19.2518 1.61066 18.4428 2.61626 17.9443C2.87788 17.8135 2.97599 17.8463 3.1395 18.0996C3.99794 19.4479 5.58401 20.0117 7.10468 19.5214C7.82413 19.2925 8.29832 18.8268 8.39642 18.0505C8.48636 17.3397 8.1675 16.8085 7.58704 16.4163C6.78583 15.8688 5.86199 15.64 4.93814 15.403C4.37402 15.2642 3.81807 15.0925 3.30301 14.8311C1.83958 14.0793 1.15282 12.8618 1.14465 11.2439C1.13647 9.62594 1.83958 8.42474 3.26214 7.67298C5.01989 6.73328 6.88394 6.75779 8.77251 7.15818C9.45108 7.2971 10.1052 7.54224 10.7428 7.80372C10.9963 7.90995 11.1189 8.04886 11.1107 8.34302C11.0862 9.22556 10.8328 10.01 10.2768 10.7046C10.0643 10.9742 9.89256 11.0314 9.57374 10.8108C8.49453 10.059 7.27636 9.74031 5.95191 9.91195C5.14252 10.0182 4.70104 10.492 4.70922 11.1867C4.71739 11.6197 4.92179 11.9139 5.27334 12.1345C5.82928 12.4777 6.45062 12.6493 7.08015 12.8046C8.11846 13.0579 9.13223 13.3765 10.0233 13.9812C11.5195 14.9945 12.1572 16.4326 11.9937 18.214C11.8302 20.028 10.8573 21.3109 9.17311 21.9809C6.94117 22.8798 4.68469 22.888 2.44457 21.9728C1.65971 21.6459 1.08742 21.0494 0.482422 20.5101C0.482422 20.412 0.482422 20.314 0.482422 20.2241Z" fill="#F38632"/>
<path d="M97.0207 28.8938C95.5 28.8529 93.9213 28.7386 92.4341 28.1257C90.5615 27.3576 89.6376 26.0339 89.6459 24.1462C89.6622 22.087 90.6187 20.6816 92.5075 19.9381C93.0957 19.7092 93.7011 19.5458 94.3218 19.4559C94.5919 19.4151 94.649 19.317 94.5837 19.08C94.4532 18.6143 94.4696 18.1485 94.6164 17.6991C94.7152 17.4131 94.5674 17.364 94.3554 17.3396C93.8723 17.2741 93.4065 17.1598 92.957 16.98C91.2071 16.3018 90.2999 15.0025 90.1609 13.1722C89.9156 9.85457 91.9429 7.42774 95.2544 6.98648C96.8077 6.7822 98.3121 6.86391 99.7267 7.59116C99.9306 7.69739 100.028 7.6647 100.16 7.48494C101.247 5.99775 102.718 5.58102 104.468 6.0141C105.261 6.21021 105.351 6.32461 105.45 7.14992C105.466 7.30517 105.482 7.46859 105.466 7.62385C105.367 8.84138 105.367 8.85772 104.166 8.80869C103.52 8.78417 102.923 8.92308 102.35 9.2173C102.049 9.37254 102.016 9.51147 102.195 9.80554C103.021 11.1783 103.144 12.6656 102.677 14.169C102.106 16.0076 100.691 16.8983 98.9002 17.2987C98.7126 17.3396 98.516 17.3559 98.3284 17.3967C98.0828 17.4458 97.7556 17.3068 97.6414 17.6828C97.4865 18.1894 97.4212 18.6959 97.6822 19.1781C97.781 19.3579 97.9931 19.3007 98.1734 19.317C99.5627 19.3987 100.92 19.6275 102.212 20.1914C105.335 21.5641 105.229 25.0287 103.847 26.6385C102.964 27.6599 101.803 28.1747 100.528 28.4853C99.3996 28.7876 98.2387 28.8775 97.0207 28.8938ZM96.669 21.9236C95.925 21.9236 95.1891 21.9318 94.4777 22.1851C93.6358 22.4875 93.1781 23.0758 93.1365 23.8848C93.1038 24.7591 93.4799 25.3475 94.3218 25.7397C94.9761 26.042 95.6794 26.1319 96.3908 26.1645C97.6007 26.2136 98.8105 26.2054 99.9633 25.7478C100.937 25.3638 101.378 24.4731 101.075 23.5334C100.821 22.7571 100.152 22.4548 99.4403 22.2505C98.5332 21.989 97.6007 21.9318 96.669 21.9236ZM99.3588 12.5021C99.3833 11.211 98.6555 10.1815 97.4865 9.83826C96.979 9.69118 96.4642 9.7402 95.9576 9.78923C94.7151 9.92 93.9131 10.6473 93.6603 11.8484C93.3413 13.4092 94.0527 14.6593 95.4664 14.9781C95.9739 15.0924 96.4805 15.0924 97.0043 15.0271C98.5241 14.8554 99.3262 14.0057 99.3588 12.5021Z" fill="#1BA9C8"/>
<path d="M133.704 9.32348C134.726 7.87714 135.985 6.89657 137.833 6.92109C139.673 6.9456 140.915 7.87714 141.675 9.55222C142.379 8.29387 143.351 7.45222 144.7 7.08451C145.837 6.78218 146.981 6.81486 148.077 7.20708C149.63 7.75457 150.284 9.04563 150.652 10.5246C150.971 11.7912 151.036 13.0986 151.044 14.3978C151.052 16.8574 151.036 19.317 151.06 21.7765C151.06 22.1606 150.905 22.2668 150.586 22.3158C149.704 22.4466 148.821 22.4548 147.937 22.3158C147.594 22.2668 147.472 22.1279 147.472 21.7602C147.488 18.9493 147.48 16.1301 147.464 13.3192C147.464 12.6737 147.357 12.0363 147.169 11.4234C146.941 10.6717 146.532 10.0752 145.697 9.92813C144.831 9.77289 144.054 9.96901 143.466 10.6636C142.795 11.4398 142.582 12.3959 142.427 13.3683C142.157 15.1251 142.263 16.8983 142.247 18.6633C142.239 19.7092 142.239 20.7551 142.247 21.8011C142.247 22.0953 142.182 22.2178 141.863 22.275C140.997 22.4139 140.138 22.4221 139.264 22.2831C138.912 22.2259 138.822 22.1116 138.822 21.7684C138.831 18.9411 138.831 16.1057 138.805 13.2784C138.797 12.6247 138.74 11.9628 138.569 11.3254C138.209 10.0099 137.105 9.51144 135.871 10.1242C135.241 10.4429 134.816 10.9577 134.497 11.5705C133.884 12.7555 133.696 14.0383 133.688 15.3457C133.679 17.4866 133.679 19.6193 133.696 21.7602C133.696 22.1279 133.59 22.2668 133.23 22.3077C132.413 22.4057 131.595 22.4711 130.769 22.3404C130.376 22.275 130.205 22.1606 130.213 21.7112C130.238 18.4998 130.213 15.2804 130.238 12.0691C130.246 10.9087 129.91 9.82192 129.715 8.70243C129.666 8.40827 129.715 8.2857 129.976 8.15496C131.039 7.632 132.142 7.24795 133.287 6.97012C133.655 6.88023 133.696 7.0028 133.688 7.30514C133.696 7.97518 133.704 8.6534 133.704 9.32348Z" fill="#1BA9C8"/>
<path d="M167.224 14.7901C167.257 16.0403 167.094 17.1925 166.701 18.312C165.695 21.1719 163.325 22.7162 160.103 22.6345C158.403 22.5937 156.817 22.1932 155.525 21.0084C154.437 20.0115 153.849 18.745 153.563 17.3314C153.137 15.2641 153.154 13.213 153.865 11.2029C154.789 8.57988 156.702 7.19075 159.45 6.92927C160.88 6.79853 162.286 6.94561 163.594 7.59932C165.622 8.61256 166.611 10.3612 167.028 12.5021C167.175 13.2784 167.249 14.0628 167.224 14.7901ZM163.644 14.6512C163.668 13.8177 163.577 12.878 163.251 11.9792C162.727 10.5328 161.697 9.85456 160.136 9.88727C158.639 9.91999 157.651 10.6308 157.226 12.1017C156.71 13.8994 156.71 15.7216 157.242 17.5193C157.667 18.9656 158.639 19.6439 160.144 19.6602C161.763 19.6765 162.76 19.0147 163.251 17.5765C163.569 16.6695 163.652 15.7298 163.644 14.6512Z" fill="#1BA9C8"/>
<path d="M66.7541 15.3946C65.5278 15.3946 64.3014 15.411 63.0751 15.3865C62.6908 15.3783 62.6091 15.5091 62.65 15.8523C62.7072 16.3098 62.7644 16.7756 62.887 17.225C63.4267 19.1208 64.9392 20.0768 66.9504 19.799C67.9233 19.6682 68.8389 19.4068 69.681 18.8919C69.8772 18.7694 70.0244 18.7939 70.196 18.9247C70.8093 19.3986 71.1771 20.0196 71.3325 20.7714C71.3898 21.0492 71.2262 21.1391 71.0464 21.2534C69.2069 22.3893 67.2119 22.7733 65.0699 22.5609C63.2141 22.3729 61.6035 21.7193 60.4508 20.1912C59.6577 19.1371 59.2735 17.9196 59.11 16.6285C58.8728 14.7737 58.9464 12.9432 59.625 11.1701C60.6388 8.52257 62.977 6.9455 65.8221 6.89647C67.7434 6.86379 69.4684 7.29687 70.8502 8.70234C72.0928 9.97706 72.5834 11.5623 72.706 13.2946C72.7387 13.7604 72.6978 14.2261 72.7224 14.6919C72.7387 14.9861 72.6161 15.0678 72.3463 15.1169C71.5369 15.2721 70.7275 15.3865 69.9018 15.3865C68.8552 15.4028 67.8006 15.3946 66.7541 15.3946ZM66.0265 9.69105C63.9499 9.65018 63.0342 11.407 62.8299 12.9188C62.7971 13.1557 62.9116 13.1802 63.1078 13.172C63.6065 13.1393 64.1052 13.1149 64.6039 13.0903C66.002 13.0168 67.4 12.9515 68.7981 12.886C68.9861 12.8779 69.166 12.886 69.1251 12.6083C68.8144 10.6553 67.5799 9.64202 66.0265 9.69105Z" fill="#F38632"/>
<path d="M24.4943 20.0115C23.6849 21.2209 22.7038 22.0054 21.4203 22.3893C20.4719 22.6672 19.5153 22.6999 18.5506 22.5038C16.9318 22.1687 16.0571 21.0657 15.5828 19.5784C15.1577 18.2547 15.0351 16.8819 14.9861 15.4928C14.9042 13.3274 14.9697 11.1538 14.9369 8.98842C14.9288 8.67791 15.0105 8.48996 15.2885 8.32654C16.1224 7.83626 16.9809 7.39502 17.8802 7.03547C18.3789 6.83936 18.3789 6.83937 18.3789 7.36233C18.387 9.97715 18.3789 12.6001 18.4198 15.215C18.428 16.1301 18.5015 17.0454 18.7468 17.936C19.1801 19.4968 20.3656 20.0605 21.8372 19.3578C23.2434 18.6877 23.922 17.4539 24.2981 16.0158C24.4452 15.4601 24.4943 14.88 24.4943 14.2998C24.4861 12.453 24.5024 10.6064 24.4779 8.75962C24.4779 8.41642 24.6006 8.24482 24.8867 8.08957C25.7124 7.64832 26.5708 7.28878 27.4539 6.98644C27.8299 6.86388 27.9116 6.92925 27.9116 7.32147C27.9035 11.7094 27.9035 16.0974 27.9035 20.4773C27.9035 20.9103 27.879 21.3434 27.9116 21.7765C27.9362 22.1197 27.8299 22.2668 27.4865 22.3158C26.6036 22.4384 25.7288 22.4466 24.8458 22.275C24.5515 22.2178 24.4861 22.1034 24.4943 21.8337C24.5107 21.2699 24.4943 20.6979 24.4943 20.0115Z" fill="#F38632"/>
<path d="M122.16 10.255C120.706 10.255 119.275 10.255 117.835 10.255C117.533 10.255 117.214 10.2223 116.92 10.2794C116.209 10.4265 115.767 10.0833 115.383 9.54402C114.966 8.9557 114.664 8.33469 114.532 7.62378C114.475 7.32961 114.557 7.22339 114.868 7.22339C118.203 7.23155 121.547 7.23155 124.882 7.22339C125.128 7.22339 125.317 7.31327 125.488 7.47669C126.158 8.1304 126.616 8.90668 126.894 9.80548C126.992 10.116 126.787 10.2467 126.632 10.4184C124.711 12.4776 122.79 14.5367 120.869 16.5959C120.068 17.4539 119.275 18.3119 118.465 19.178C118.596 19.3251 118.743 19.2516 118.874 19.2516C121.662 19.2189 124.449 19.1862 127.238 19.1453C127.859 19.1371 127.859 19.129 127.655 19.6928C127.328 20.608 126.787 21.368 126.061 22.0053C125.88 22.1606 125.693 22.2341 125.455 22.2341C122.34 22.2259 119.226 22.2259 116.119 22.2341C115.857 22.2341 115.652 22.1606 115.448 22.0216C114.696 21.5069 114.181 20.8122 113.805 19.987C113.633 19.5948 113.674 19.3251 113.977 19.0065C115.652 17.2496 117.304 15.4683 118.964 13.6951C119.978 12.6165 120.983 11.5297 121.989 10.4511C122.07 10.3857 122.168 10.3366 122.16 10.255Z" fill="#1BA9C8"/>
<path d="M50.4926 17.2252C50.9095 16.1875 51.2938 15.2478 51.678 14.2999C52.61 11.9793 53.5584 9.65857 54.4741 7.32979C54.605 6.99477 54.752 6.91305 55.1118 6.97026C56.0193 7.10916 56.8532 7.41151 57.6381 7.8691C57.9406 8.04886 57.9978 8.20412 57.8424 8.54732C56.3054 11.8158 54.7929 15.1007 53.2723 18.3774C52.7409 19.5295 52.2013 20.6736 51.6862 21.8339C51.5554 22.128 51.3837 22.2997 51.0486 22.3078C50.9177 22.3078 50.7951 22.3405 50.6643 22.3487C49.5606 22.4059 49.4297 22.3241 48.9556 21.3273C46.9771 17.1517 44.9985 12.968 43.0037 8.79246C42.832 8.42475 42.8565 8.2123 43.1836 7.95898C43.8785 7.41967 44.6388 7.09283 45.5055 6.95392C45.8652 6.89671 46.0532 6.98659 46.2004 7.33797C47.5085 10.3777 48.833 13.4093 50.1492 16.4408C50.2473 16.6614 50.3536 16.8984 50.4926 17.2252Z" fill="#F38632"/>
<path d="M34.7873 9.85462C35.9074 7.38693 38.0821 7.10094 40.3876 7.08459C40.5675 7.08459 40.6492 7.14179 40.6328 7.3379C40.5592 8.17137 40.4775 9.00485 40.0524 9.74841C39.8234 10.1488 39.5455 10.4675 38.9814 10.4103C38.6217 10.3695 38.2374 10.443 37.8776 10.5084C36.1935 10.8189 35.3596 11.8403 35.147 13.8177C35.0653 14.5369 35.0326 15.2559 35.0407 15.9831C35.0407 17.8952 35.0244 19.8073 35.0571 21.7194C35.0653 22.1525 34.9018 22.2669 34.5338 22.3241C33.7163 22.4467 32.8987 22.4467 32.073 22.3241C31.7132 22.2751 31.5743 22.1361 31.5743 21.7439C31.5988 19.0556 31.5497 16.3754 31.5988 13.687C31.6315 12.0691 31.517 10.4838 30.9774 8.94765C30.863 8.61263 30.961 8.46554 31.2472 8.31029C32.1711 7.77916 33.1358 7.3379 34.1414 6.98653C34.4275 6.88848 34.5093 6.96203 34.5257 7.23167C34.5666 7.84452 34.6237 8.4492 34.6729 9.05388C34.681 9.32356 34.681 9.57686 34.7873 9.85462Z" fill="#F38632"/>
<path d="M111.548 14.6266C111.548 17.0208 111.54 19.415 111.556 21.8092C111.556 22.136 111.458 22.2668 111.155 22.3158C110.289 22.4466 109.423 22.471 108.556 22.3321C108.213 22.2749 108.09 22.1278 108.098 21.7602C108.114 19.0636 108.073 16.3589 108.114 13.6624C108.139 11.9954 108.016 10.3612 107.616 8.75141C107.526 8.39187 107.607 8.21211 107.975 8.06502C108.973 7.66462 109.994 7.30509 111.033 7.02727C111.556 6.88835 111.556 6.88835 111.556 7.46034C111.548 9.83818 111.548 12.2324 111.548 14.6266Z" fill="#1BA9C8"/>
<path d="M112.529 2.32056C112.464 2.41862 112.415 2.51667 112.35 2.60655C111.802 3.35015 111.123 3.96299 110.346 4.46961C110.11 4.62487 109.921 4.6167 109.685 4.47779C108.858 4.00386 108.18 3.38283 107.632 2.60655C107.493 2.41044 107.477 2.26336 107.632 2.0509C108.221 1.27463 108.916 0.612756 109.75 0.0979635C109.929 -0.0164354 110.069 -0.0654632 110.265 0.0816204C111.058 0.645441 111.769 1.29098 112.358 2.06725C112.415 2.14896 112.464 2.23068 112.529 2.32056Z" fill="#1BA9C8"/>
</g>
<defs>
<clipPath id="clip0_0_348">
<rect width="166.75" height="29" fill="white" transform="translate(0.482422)"/>
</clipPath>
</defs>
</svg>
