<svg width="141" height="29" viewBox="0 0 141 29" fill="none" xmlns="http://www.w3.org/2000/svg">
<path d="M0.482422 4.23933V0H19.7231V4.23933H12.6845V22.9287H7.52103V4.23933H0.482422Z" fill="#33393F"/>
<path d="M24.6363 27.8741C23.7369 28.4522 22.4871 28.7409 20.8869 28.7409C20.4042 28.7409 19.9273 28.7251 19.4562 28.6927C18.9843 28.6603 18.5075 28.6231 18.0256 28.5806V24.8234C18.4639 24.8659 18.9134 24.9088 19.3741 24.9514C19.8344 24.9939 20.2947 25.0048 20.7554 24.9837C21.3687 24.9198 21.8244 24.6837 22.1205 24.2773C22.4114 23.8852 22.5668 23.4128 22.5642 22.9287C22.5642 22.5651 22.4983 22.2218 22.3668 21.9007L16.4138 6.3264H21.3803L25.2285 17.6938H25.294L29.0107 6.3264H33.8453L26.7412 24.9837C26.2365 26.3319 25.5349 27.2955 24.6363 27.8741ZM39.9443 6.3264V8.44587H40.0102C40.58 7.54666 41.3036 6.89362 42.1806 6.48713C43.0576 6.08065 44.0226 5.877 45.0754 5.877C46.4123 5.877 47.5634 6.12316 48.5288 6.61548C49.4933 7.1082 50.2936 7.76124 50.9297 8.57421C51.5654 9.38798 52.0365 10.3354 52.3437 11.4164C52.6506 12.4977 52.8044 13.6269 52.8044 14.8047C52.8044 15.918 52.6506 16.9881 52.3437 18.0152C52.0365 19.0432 51.5708 19.9533 50.9459 20.7448C50.321 21.5371 49.5426 22.1691 48.6109 22.6396C47.6787 23.11 46.5881 23.3465 45.3383 23.3465C44.2859 23.3465 43.3155 23.1376 42.4273 22.7202C41.5391 22.3027 40.8101 21.6873 40.2403 20.8736H40.1744V29H35.504V6.3264H39.9443ZM46.0146 19.4772C46.5195 19.1873 46.9476 18.7857 47.2644 18.3047C47.5821 17.8229 47.8072 17.2614 47.9387 16.6189C48.0706 15.9763 48.1365 15.3237 48.1365 14.6597C48.1371 14.0012 48.0653 13.3446 47.9225 12.701C47.7795 12.0589 47.5443 11.486 47.2151 10.9827C46.8935 10.4872 46.4604 10.0699 45.9487 9.76248C45.4337 9.45276 44.803 9.29689 44.0578 9.29689C43.2898 9.29689 42.6487 9.45276 42.1337 9.76248C41.6275 10.0645 41.1998 10.4767 40.8839 10.967C40.5659 11.4597 40.3415 12.0265 40.2097 12.6686C40.0768 13.3243 40.0107 13.9913 40.0123 14.6597C40.0123 15.3237 40.0832 15.9763 40.2262 16.6189C40.3685 17.2614 40.5986 17.8229 40.9167 18.3047C41.2343 18.7865 41.6569 19.1772 42.1831 19.4772C42.7093 19.7768 43.345 19.9262 44.0906 19.9262C44.8581 19.9262 45.4992 19.7768 46.0146 19.4772ZM60.2842 18.9464C60.9855 19.6108 61.9948 19.942 63.3101 19.942C64.2531 19.942 65.0642 19.7128 65.7442 19.2517C66.4234 18.7914 66.8402 18.3043 66.9936 17.7905H71.1051C70.447 19.7817 69.4381 21.206 68.0792 22.0614C66.7195 22.9177 65.0753 23.3465 63.1459 23.3465C61.8082 23.3465 60.6019 23.1376 59.5283 22.7202C58.4535 22.3027 57.5433 21.7088 56.7985 20.9379C56.053 20.1679 55.4774 19.2464 55.0714 18.1768C54.6655 17.1059 54.4631 15.9286 54.4631 14.6439C54.4631 13.4026 54.6713 12.2467 55.088 11.1763C55.5043 10.1054 56.0965 9.17988 56.864 8.39809C57.6312 7.61711 58.5464 7.00131 59.6104 6.55191C60.6732 6.1017 61.8517 5.87741 63.1459 5.87741C64.5931 5.87741 65.8537 6.15029 66.9277 6.69604C68.0021 7.24221 68.8849 7.97582 69.5754 8.89567C70.2662 9.81633 70.7646 10.8657 71.0719 12.0427C71.3787 13.2208 71.4882 14.4516 71.4007 15.7358H59.1331C59.1991 17.2124 59.5826 18.2828 60.2842 18.9464ZM65.5634 10.2123C65.004 9.61268 64.1544 9.31268 63.0149 9.31268C62.2689 9.31268 61.6498 9.43616 61.1563 9.68192C60.6633 9.92888 60.2685 10.2337 59.9728 10.5973C59.6768 10.9613 59.4682 11.3475 59.3483 11.7536C59.2273 12.1601 59.1559 12.5241 59.134 12.8451H66.7315C66.5114 11.6888 66.122 10.8119 65.5634 10.2123ZM71.4588 9.37705V6.3264H74.2541V5.04177C74.2541 3.56483 74.7251 2.3555 75.6685 1.41298C76.6111 0.471262 78.0367 0 79.9442 0C80.3605 0 80.7777 0.0165996 81.194 0.048179C81.6103 0.0805681 82.0163 0.107694 82.4115 0.128747V3.53244C81.8439 3.46741 81.2728 3.43524 80.7014 3.43608C80.0653 3.43608 79.61 3.58102 79.3363 3.87009C79.0618 4.15876 78.9253 4.64622 78.9253 5.33125V6.3264H82.1482V9.37705H78.9253V22.9287H74.2549V9.37705H71.4588ZM82.7656 11.0309C83.1819 9.94993 83.7741 9.02927 84.5416 8.26894C85.3088 7.50982 86.2293 6.92074 87.3042 6.50333C88.3782 6.08551 89.584 5.877 90.9222 5.877C92.2586 5.877 93.4711 6.08551 94.5572 6.50333C95.6423 6.92074 96.57 7.50982 97.3359 8.26894C98.1047 9.02927 98.6964 9.94993 99.1127 11.0309C99.5282 12.1119 99.7372 13.3164 99.7372 14.6435C99.7372 15.9707 99.5282 17.1695 99.1127 18.2403C98.6964 19.3112 98.1042 20.2258 97.3359 20.9857C96.5695 21.7456 95.6423 22.3291 94.5572 22.7355C93.4715 23.142 92.2586 23.3461 90.9222 23.3461C89.584 23.3461 88.3782 23.142 87.3042 22.7355C86.2293 22.3291 85.3088 21.7456 84.5416 20.9857C83.7737 20.2258 83.1819 19.3108 82.7656 18.2403C82.3484 17.1695 82.1403 15.9711 82.1403 14.6435C82.1403 13.316 82.3484 12.1119 82.7656 11.0309ZM87.0081 16.5861C87.1395 17.2181 87.3639 17.7857 87.6828 18.2881C87.9953 18.7867 88.4306 19.2009 88.9492 19.493C89.475 19.7926 90.1326 19.942 90.9222 19.942C91.7117 19.942 92.3743 19.7926 92.9113 19.493C93.4483 19.1934 93.8767 18.7918 94.1947 18.2881C94.5128 17.7857 94.7379 17.2176 94.8702 16.5861C95.0008 15.9549 95.0676 15.3075 95.0676 14.6435C95.0676 13.9804 95.0013 13.3265 94.8702 12.6844C94.7379 12.0423 94.5128 11.4755 94.1947 10.9827C93.8767 10.4908 93.4483 10.0892 92.9113 9.77827C92.3743 9.46855 91.7117 9.31268 90.9222 9.31268C90.1326 9.31268 89.475 9.46855 88.9492 9.77827C88.4356 10.0766 88.0017 10.4893 87.6828 10.9827C87.3639 11.4755 87.1395 12.0423 87.0081 12.6844C86.8763 13.3295 86.8102 13.9857 86.8107 14.6435C86.8107 15.3075 86.8766 15.9549 87.0081 16.5861ZM105.863 6.3264V9.40904H105.929C106.147 8.89526 106.444 8.41914 106.816 7.98027C107.189 7.5414 107.617 7.1665 108.099 6.85678C108.579 6.54783 109.099 6.30466 109.646 6.13409C110.198 5.96198 110.775 5.87523 111.355 5.877C111.663 5.877 112.003 5.93085 112.376 6.03733V10.2763C112.115 10.2276 111.851 10.1902 111.586 10.1641C111.291 10.1326 110.995 10.1164 110.698 10.1155C109.843 10.1155 109.119 10.2552 108.527 10.5333C107.935 10.8119 107.458 11.1917 107.097 11.673C106.735 12.1548 106.477 12.7168 106.324 13.3589C106.171 14.001 106.094 14.697 106.094 15.4468V22.9287H101.424V6.3264H105.863ZM118.442 6.3264V8.57421H118.507C119.12 7.71873 119.862 7.05435 120.727 6.58309C121.593 6.11304 122.585 5.877 123.703 5.877C124.778 5.877 125.759 6.08065 126.648 6.48713C127.535 6.89362 128.209 7.61104 128.671 8.63858C129.175 7.91064 129.859 7.26852 130.726 6.71183C131.592 6.15515 132.617 5.877 133.802 5.877C134.701 5.877 135.533 5.98429 136.3 6.19806C137.069 6.41224 137.726 6.75515 138.274 7.22561C138.821 7.69687 139.249 8.31226 139.558 9.07178C139.863 9.83212 140.017 10.7475 140.017 11.818V22.9287H135.346V13.5196C135.346 12.9629 135.325 12.4386 135.28 11.9459C135.237 11.454 135.116 11.0261 134.919 10.6617C134.721 10.2981 134.431 10.009 134.047 9.79447C133.663 9.5807 133.143 9.47341 132.485 9.47341C131.827 9.47341 131.296 9.5969 130.889 9.84265C130.493 10.0795 130.165 10.4111 129.936 10.8062C129.706 11.2026 129.552 11.652 129.476 12.1548C129.399 12.6597 129.36 13.1695 129.361 13.6799V22.9287H124.69V13.616C124.69 13.1233 124.679 12.6366 124.657 12.1548C124.634 11.673 124.542 11.2289 124.377 10.8224C124.213 10.4159 123.939 10.0892 123.556 9.84265C123.171 9.5969 122.607 9.47341 121.862 9.47341C121.641 9.47341 121.351 9.52159 120.989 9.61795C120.627 9.7143 120.277 9.89609 119.937 10.1641C119.598 10.4317 119.307 10.8172 119.065 11.3196C118.824 11.8232 118.704 12.4811 118.704 13.2949V22.9287H114.033V6.3264H118.442Z" fill="#33393F"/>
</svg>
