<svg width="162" height="29" viewBox="0 0 162 29" fill="none" xmlns="http://www.w3.org/2000/svg">
<g clip-path="url(#clip0_0_361)">
<path d="M16.5919 9.90286C17.8675 9.90286 19.1432 9.96665 20.4188 9.8816C21.3542 9.82844 21.6519 10.1261 21.6838 11.0723C21.8007 15.1867 20.4719 18.5994 16.677 20.5344C12.7757 22.5331 8.8425 22.2142 5.22822 19.7689C0.104458 16.303 -1.03297 9.38192 2.61319 4.49143C6.32314 -0.494754 13.3497 -1.47285 18.1971 2.28007C18.8455 2.77975 19.0687 3.14122 18.3034 3.71532C17.8144 4.08743 17.4742 4.77848 16.9427 4.93795C16.3687 5.11868 15.9541 4.35322 15.4438 4.05553C12.6268 2.41828 8.88502 2.74786 6.48259 4.88479C3.79314 7.27688 3.00651 10.9766 4.48411 14.198C5.8873 17.2599 9.09762 19.0885 12.3611 18.6951C15.6458 18.3018 17.7293 16.5795 18.4203 13.794C18.601 13.0498 18.4947 12.8159 17.7081 12.8372C15.9541 12.8797 14.1895 12.8053 12.4355 12.8691C11.6276 12.901 11.4575 12.6245 11.4788 11.8803C11.5107 9.90286 11.4788 9.90286 13.4985 9.90286C14.519 9.90286 15.5501 9.90286 16.5919 9.90286Z" fill="#686868"/>
<path d="M66.7346 9.92422C66.7346 8.20192 66.7346 8.20192 64.9806 8.21255C64.3534 8.21255 63.5456 7.97865 63.8538 9.30759C61.1219 7.13877 57.9115 7.3195 55.5729 9.56275C52.9047 12.125 52.522 15.9842 54.6481 18.9504C56.7954 21.9485 59.8781 22.4482 63.7475 20.4175C63.8857 21.0448 63.7794 21.6402 63.6731 22.2355C63.418 23.6814 62.6739 24.6914 61.1963 25.0848C59.6443 25.4994 58.1986 25.1804 57.3269 23.8728C57.1249 23.5645 56.8804 23.2455 56.5402 23.086C56.2745 22.9585 55.9768 22.9585 55.7005 23.0435C55.5623 23.086 55.4347 23.1498 55.3071 23.2136C55.1689 23.288 54.6481 23.5326 54.5205 23.5857C54.3929 23.6495 54.276 23.7239 54.1803 23.8196C54.0953 23.894 54.0315 24.0003 54.0209 24.1173C54.0102 24.3087 54.1165 24.5 54.2122 24.6595C55.743 27.3386 58.9214 28.6357 62.0467 27.8064C65.0019 27.0197 66.7027 24.6489 66.7346 21.1936C66.7559 17.4301 66.7346 13.6772 66.7346 9.92422ZM60.197 18.9504C58.0922 18.9185 56.3808 17.0048 56.402 14.7297C56.4233 12.412 58.1241 10.5621 60.2502 10.5621C62.3656 10.5621 64.0133 12.412 64.0133 14.7828C64.0133 17.1324 62.3231 18.9823 60.197 18.9504Z" fill="#686868"/>
<path d="M131.919 9.94549C134.991 7.07498 137.946 7.1494 140.03 10.1156C140.444 10.0624 140.572 9.64781 140.827 9.40328C142.485 7.91487 144.378 7.45772 146.472 8.22319C148.47 8.95676 149.129 10.6791 149.204 12.5821C149.31 15.2612 149.214 17.951 149.246 20.6408C149.257 21.2149 149.012 21.2999 148.513 21.3106C146.748 21.3531 146.748 21.3744 146.748 19.6095C146.748 17.5789 146.759 15.5483 146.748 13.507C146.738 11.4764 146.036 10.4345 144.516 10.1794C142.943 9.9136 141.518 10.8492 140.891 12.5927C140.646 13.2838 140.561 13.9961 140.572 14.7297C140.583 16.6221 140.54 18.5251 140.593 20.4175C140.615 21.1724 140.359 21.4063 139.658 21.3106C139.392 21.2681 139.105 21.2787 138.829 21.3106C138.223 21.385 138.074 21.1086 138.085 20.5451C138.106 18.2381 138.095 15.931 138.095 13.624C138.085 11.3063 137.255 10.2219 135.469 10.1581C133.715 10.105 132.132 11.6572 132.068 13.6134C131.993 15.846 132.015 18.0892 132.057 20.3325C132.068 21.0873 131.898 21.4382 131.1 21.3106C130.803 21.2681 130.484 21.2787 130.176 21.3106C129.687 21.3531 129.506 21.1617 129.506 20.6621C129.517 16.7709 129.517 12.8798 129.506 8.97802C129.506 8.40392 129.761 8.30824 130.261 8.28698C131.845 8.23382 131.845 8.22319 131.876 9.73286C131.876 9.78602 131.887 9.81791 131.919 9.94549Z" fill="#686868"/>
<path d="M29.6883 7.69141C25.6807 7.7233 22.6724 10.7852 22.683 14.8145C22.6936 18.7482 25.7551 21.7675 29.7415 21.7463C33.7597 21.7356 36.7681 18.695 36.7468 14.6657C36.7362 10.7427 33.6215 7.65952 29.6883 7.69141ZM29.6139 18.9502C27.4347 18.8758 25.7233 16.9621 25.787 14.6444C25.8402 12.2842 27.5835 10.5194 29.8159 10.5619C31.9951 10.5938 33.6959 12.4969 33.6428 14.8464C33.6002 17.1641 31.7825 19.0246 29.6139 18.9502Z" fill="#686868"/>
<path d="M45.0172 7.69141C41.0309 7.69141 37.98 10.7639 37.9906 14.7826C38.0013 18.7269 41.0415 21.7463 45.0172 21.7463C48.9929 21.7463 52.0438 18.7269 52.0438 14.7826C52.0544 10.7746 49.0035 7.69141 45.0172 7.69141ZM44.9747 18.9502C42.7955 18.9183 41.0628 17.0152 41.0947 14.6869C41.1265 12.3268 42.8486 10.5407 45.0704 10.5513C47.2602 10.5726 48.9716 12.4331 48.9504 14.7826C48.9291 17.1109 47.1326 18.9821 44.9747 18.9502Z" fill="#686868"/>
<path d="M78.0132 16.4411C80.522 15.3993 83.0413 14.3786 85.5394 13.3261C85.8264 13.2092 86.3686 13.2304 86.156 12.6138C84.8485 8.78645 81.4468 6.7771 77.6305 8.15919C74.6222 9.25424 72.8576 12.5606 73.4316 15.867C74.0375 19.3861 76.7163 21.7037 80.2137 21.7569C81.9677 21.7675 83.5197 21.2466 84.8697 20.0984C86.4217 18.7694 86.4324 18.7801 84.7315 17.6531C84.6465 17.6 84.5508 17.5468 84.4764 17.483C84.0193 17.0897 83.7217 17.0684 83.2539 17.6106C81.7657 19.3116 79.2251 19.4286 77.7475 17.9402C76.8652 17.0471 76.8864 16.9089 78.0132 16.4411ZM76.4612 14.4849C76.5037 12.8796 77.1097 11.7314 78.4065 10.9872C79.5015 10.3599 80.6283 10.328 81.7338 10.9447C82.0952 11.1466 82.5204 11.4124 82.4992 11.8377C82.4779 12.1779 81.9783 12.1885 81.67 12.3161C79.9692 13.0284 78.2577 13.7301 76.4612 14.4849Z" fill="#686868"/>
<path d="M92.9915 11.7741C92.9915 8.94609 93.0128 6.11811 92.9703 3.30076C92.9596 2.56718 93.0977 2.28013 93.9162 2.30139C97.0203 2.35455 100.124 2.37581 103.217 2.30139C104.45 2.2695 104.057 3.05623 104.121 3.66223C104.195 4.35328 104.121 4.7998 103.175 4.76791C100.9 4.69348 98.6254 4.77854 96.3506 4.72538C95.6065 4.71475 95.4151 4.94864 95.447 5.66095C95.5001 7.13873 95.4895 8.62714 95.447 10.105C95.4257 10.7535 95.6596 10.9236 96.2762 10.913C98.3065 10.8811 100.348 10.9661 102.378 10.8811C103.483 10.8385 103.26 11.5083 103.302 12.1356C103.345 12.8266 103.313 13.2944 102.356 13.2519C100.326 13.1668 98.2959 13.2519 96.2549 13.2094C95.6171 13.1987 95.4364 13.3901 95.447 14.028C95.4789 16.1649 95.447 18.3019 95.4683 20.4388C95.4789 21.0554 95.3832 21.3531 94.6497 21.3425C92.9808 21.3212 92.9808 21.3637 92.9808 19.6414C92.9914 17.0154 92.9915 14.3895 92.9915 11.7741Z" fill="#686868"/>
<path d="M111.583 7.87234C107.692 7.86171 104.897 10.7854 104.907 14.8572C104.918 18.8972 107.661 21.7465 111.551 21.7465C115.474 21.7465 118.259 18.8441 118.248 14.7828C118.248 10.796 115.431 7.87234 111.583 7.87234ZM115.761 15.1337C115.644 17.7809 113.699 19.6308 111.243 19.4607C108.979 19.3012 107.374 17.345 107.395 14.7722C107.416 12.0931 109.266 10.0943 111.658 10.1581C114.124 10.2219 115.888 12.3588 115.761 15.1337Z" fill="#686868"/>
<path d="M156.761 21.7676C154.083 21.7251 152.297 20.8321 151.085 18.8546C150.734 18.2699 150.638 17.8765 151.446 17.6851C151.68 17.632 151.903 17.5257 152.105 17.3981C152.669 17.0579 152.966 17.2386 153.307 17.8021C154.274 19.3862 156.166 19.9603 157.803 19.2586C158.484 18.9609 158.962 18.4931 158.962 17.7064C158.962 16.9409 158.473 16.4731 157.835 16.2605C156.889 15.9522 155.911 15.7396 154.944 15.495C153.859 15.2186 152.839 14.8253 152.052 14.0066C150.925 12.8372 150.809 11.1468 151.755 9.84968C153.742 7.11738 159.036 7.26622 160.886 10.073C161.311 10.7215 161.279 11.0511 160.493 11.3169C159.749 11.572 159.206 11.9335 158.537 11.0085C157.729 9.90284 155.496 9.82842 154.338 10.6152C153.381 11.2743 153.445 12.3587 154.508 12.9222C155.305 13.3475 156.23 13.4006 157.08 13.6452C157.708 13.8259 158.356 13.9428 158.962 14.1874C160.62 14.8359 161.471 16.016 161.481 17.6001C161.503 19.2586 160.578 20.6301 158.973 21.2786C158.133 21.6082 157.25 21.7995 156.761 21.7676Z" fill="#686868"/>
<path d="M68.7971 10.9659C68.7971 7.8615 68.8184 4.76773 68.7865 1.66333C68.7759 0.951027 68.9778 0.727765 69.7007 0.738397C71.9012 0.749028 71.9012 0.717133 71.9012 2.96038C71.9012 8.74392 71.8799 14.5275 71.9224 20.3216C71.933 21.1509 71.6992 21.3529 70.8913 21.3316C68.7971 21.2891 68.7971 21.321 68.7971 19.2372C68.7971 16.473 68.7971 13.7195 68.7971 10.9659Z" fill="#686868"/>
<path d="M122.564 10.3387C123.84 8.39308 125.456 7.81898 127.433 8.07413C128.039 8.14855 128.336 8.36118 127.986 9.00971C127.805 9.33928 127.667 9.70076 127.56 10.0622C127.433 10.4556 127.231 10.5832 126.806 10.5513C124.127 10.3812 122.681 11.742 122.66 14.4212C122.639 16.4199 122.596 18.4186 122.681 20.4067C122.734 21.5336 122.054 21.2997 121.427 21.2997C120.8 21.3104 120.172 21.4805 120.194 20.3854C120.268 16.7069 120.268 13.0178 120.194 9.32865C120.172 8.2655 120.683 8.28676 121.437 8.27613C122.171 8.2655 122.755 8.27613 122.585 9.27549C122.522 9.55191 122.564 9.82833 122.564 10.3387Z" fill="#686868"/>
</g>
<defs>
<clipPath id="clip0_0_361">
<rect width="161" height="29" fill="white" transform="translate(0.482422)"/>
</clipPath>
</defs>
</svg>
