<svg width="161" height="29" viewBox="0 0 161 29" fill="none" xmlns="http://www.w3.org/2000/svg">
<path fill-rule="evenodd" clip-rule="evenodd" d="M3.16026 11.4846H0V8.69801H3.16026V6.22992C3.16026 4.31914 3.706 2.81309 4.7975 1.71174C5.88899 0.610381 7.3993 0.0597119 9.32846 0.0597119C10.1407 0.0597119 10.9086 0.192403 11.632 0.45779C12.3555 0.723177 12.9456 1.09471 13.4025 1.57241L12.0318 3.96088C11.3972 3.37703 10.6103 3.08511 9.67114 3.08511C8.83348 3.08511 8.16717 3.38366 7.67219 3.98078C7.1772 4.5779 6.92972 5.39395 6.92972 6.42896V8.69801H12.3364V11.4846H6.92972V28.6019H3.16026V11.4846ZM21.3134 29C18.3943 29 16.0971 28.0778 14.4218 26.2334C12.7464 24.3889 11.9088 21.8611 11.9088 18.65C11.9088 15.4388 12.7464 12.911 14.4218 11.0666C16.0971 9.22214 18.3943 8.29993 21.3134 8.29993C24.2325 8.29993 26.5361 9.22214 28.2241 11.0666C29.9121 12.911 30.7561 15.4388 30.7561 18.65C30.7561 21.8611 29.9121 24.3889 28.2241 26.2334C26.5361 28.0778 24.2325 29 21.3134 29ZM21.3134 26.0144C23.0649 26.0144 24.4483 25.3576 25.4636 24.0439C26.479 22.7303 26.9866 20.9323 26.9866 18.65C26.9866 16.3676 26.479 14.5697 25.4636 13.256C24.4483 11.9423 23.0649 11.2855 21.3134 11.2855C19.5366 11.2855 18.1532 11.9423 17.1632 13.256C16.1732 14.5697 15.6783 16.3676 15.6783 18.65C15.6783 20.9323 16.1732 22.7303 17.1632 24.0439C18.1532 25.3576 19.5366 26.0144 21.3134 26.0144ZM33.7172 13.5546C33.7172 11.2988 33.6791 9.67994 33.603 8.69801H37.144C37.2455 9.75956 37.2963 10.9272 37.2963 12.2011V12.5992H37.4105C37.9182 11.2457 38.7241 10.1908 39.8283 9.43445C40.9325 8.6781 42.2334 8.29993 43.731 8.29993C44.1371 8.29993 44.5052 8.33974 44.8352 8.41936V11.604C44.6575 11.5509 44.2641 11.5244 43.6549 11.5244C42.538 11.5244 41.5036 11.8627 40.5517 12.5395C39.5998 13.2162 38.851 14.1318 38.3053 15.2862C37.7595 16.4406 37.4866 17.7078 37.4866 19.0879V28.6019H33.7172V13.5546ZM46.6921 13.7934C46.6921 11.7765 46.6286 10.078 46.5017 8.69801H49.8524C49.9539 9.67994 50.0047 10.8476 50.0047 12.2011H50.1189C50.6012 11.0069 51.3817 10.0581 52.4605 9.35484C53.5393 8.65156 54.7641 8.29993 56.1348 8.29993C57.4801 8.29993 58.6351 8.63829 59.5996 9.31503C60.5642 9.99177 61.2115 10.9405 61.5415 12.1613C62.0745 10.967 62.8805 10.0249 63.9593 9.33494C65.0381 8.64493 66.2501 8.29993 67.5955 8.29993C69.7023 8.29993 71.3459 9.00983 72.5262 10.4297C73.7066 11.8495 74.2967 13.8067 74.2967 16.3013V28.6019H70.5273V16.6596C70.5273 15.0142 70.1909 13.7403 69.5183 12.838C68.8456 11.9357 67.8874 11.4846 66.6436 11.4846C65.3744 11.4846 64.34 11.9689 63.5404 12.9375C62.7409 13.9062 62.3411 15.1601 62.3411 16.6994V28.6019H58.6097V16.8188C58.6097 13.2626 57.3659 11.4846 54.8783 11.4846C54.066 11.4846 53.3236 11.7234 52.6509 12.2011C51.9782 12.6788 51.4388 13.329 51.0327 14.1517C50.6265 14.9744 50.4235 15.8634 50.4235 16.8188V28.6019H46.6921V13.7934ZM83.5783 29C82.0807 29 80.7354 28.6815 79.5423 28.0446C78.3493 27.4077 77.5117 26.5585 77.0294 25.4969L79.4281 23.7852C79.8596 24.4752 80.4435 25.0192 81.1796 25.4173C81.9157 25.8154 82.7153 26.0144 83.5783 26.0144C84.5683 26.0144 85.3869 25.7225 86.0342 25.1386C86.6815 24.5548 87.0051 23.8117 87.0051 22.9094C87.0051 22.1929 86.7513 21.6024 86.2436 21.138C85.7359 20.6735 84.7967 20.1759 83.426 19.6452C81.2176 18.7694 79.6629 17.8737 78.7618 16.9581C77.8607 16.0425 77.4101 14.908 77.4101 13.5546C77.4101 11.9622 78.013 10.6884 79.2187 9.73301C80.4244 8.77762 82.0299 8.29993 84.0352 8.29993C85.3298 8.29993 86.5101 8.57858 87.5762 9.1359C88.6424 9.69321 89.48 10.4761 90.0892 11.4846L87.8428 13.2361C87.4112 12.5992 86.8718 12.1148 86.2246 11.7831C85.5773 11.4514 84.8602 11.2855 84.0733 11.2855C83.2103 11.2855 82.5059 11.4846 81.9601 11.8826C81.4144 12.2807 81.1415 12.7982 81.1415 13.4351C81.1415 14.0986 81.4207 14.6493 81.9792 15.0872C82.5376 15.5251 83.6291 16.0757 85.2536 16.7392C87.2843 17.5619 88.7122 18.4177 89.5371 19.3068C90.3621 20.1958 90.7746 21.3436 90.7746 22.7502C90.7746 24.6344 90.1146 26.1471 88.7947 27.2883C87.4747 28.4294 85.7359 29 83.5783 29ZM100.742 29C98.9647 29 97.5749 28.4361 96.5723 27.3082C95.5696 26.1803 95.0683 24.6211 95.0683 22.6307V11.7234H91.6415V8.69801H95.0683V3.625H98.8378V8.69801H104.283V11.7234H98.8378V22.1531C98.8378 23.4535 99.0852 24.4088 99.5802 25.0192C100.075 25.6296 100.83 25.9348 101.846 25.9348C102.861 25.9348 103.762 25.7756 104.549 25.4571L104.778 28.2835C103.838 28.7612 102.493 29 100.742 29ZM113.221 29C111.978 29 110.867 28.7346 109.89 28.2038C108.913 27.6731 108.151 26.9366 107.605 25.9945C107.06 25.0524 106.787 23.9842 106.787 22.79C106.787 20.773 107.523 19.2272 108.995 18.1524C110.467 17.0776 112.561 16.5402 115.278 16.5402H118.857V15.545C118.857 14.218 118.514 13.1963 117.829 12.4798C117.143 11.7632 116.141 11.4049 114.821 11.4049C113.678 11.4049 112.612 11.6372 111.622 12.1016C110.632 12.566 109.82 13.2361 109.185 14.1119L107.396 11.7632C108.31 10.6486 109.42 9.79273 110.728 9.19561C112.035 8.59849 113.45 8.29993 114.973 8.29993C117.41 8.29993 119.301 8.91695 120.646 10.151C121.991 11.385 122.664 13.1299 122.664 15.3857V24.6211C122.664 25.8154 122.816 27.1423 123.121 28.6019H119.808C119.555 27.965 119.377 27.076 119.275 25.9348H119.199C117.752 27.9783 115.76 29 113.221 29ZM113.945 25.9348C115.316 25.9348 116.477 25.5434 117.429 24.7605C118.381 23.9776 118.857 23.0288 118.857 21.9142V19.2869H115.125C113.628 19.2869 112.479 19.5854 111.679 20.1826C110.88 20.7797 110.48 21.6488 110.48 22.79C110.48 23.7719 110.791 24.5415 111.413 25.0988C112.035 25.6561 112.879 25.9348 113.945 25.9348ZM134.725 29C131.857 29 129.623 28.0844 128.024 26.2533C126.425 24.4221 125.625 21.8877 125.625 18.65C125.625 15.3857 126.425 12.8447 128.024 11.0268C129.623 9.20887 131.857 8.29993 134.725 8.29993C136.375 8.29993 137.828 8.63166 139.085 9.29513C140.341 9.9586 141.325 10.914 142.036 12.1613L139.789 14.2711C139.256 13.3688 138.558 12.6655 137.695 12.1613C136.832 11.6571 135.893 11.4049 134.878 11.4049C133.151 11.4049 131.806 12.0419 130.842 13.3157C129.877 14.5896 129.395 16.3676 129.395 18.65C129.395 20.9058 129.877 22.6772 130.842 23.9643C131.806 25.2514 133.151 25.895 134.878 25.895C135.893 25.895 136.832 25.6429 137.695 25.1386C138.558 24.6344 139.256 23.9311 139.789 23.0288L142.036 25.1386C141.325 26.386 140.341 27.3413 139.085 28.0048C137.828 28.6683 136.375 29 134.725 29ZM156.572 28.6019L150.518 18.849L147.891 21.5559V28.6019H144.083V0H147.891V16.8188L155.658 8.69801H160.265L153.069 16.1819L160.836 28.6019H156.572Z" fill="#15232B"/>
</svg>
