<svg width="102" height="29" viewBox="0 0 102 29" fill="none" xmlns="http://www.w3.org/2000/svg">
<path d="M9.12786 26.2073L0 5.6703L6.18803 4.46621L8.98376 12.1985C9.8508 14.612 10.792 17.4082 11.5713 19.5411L11.6351 19.5287C11.4824 17.0422 11.4261 14.3717 11.3956 11.6632L11.2276 3.48555L17.3839 2.2876L20.3374 10.3203C21.1987 12.702 21.9138 14.8472 22.6727 17.2153L22.7365 17.2027C22.5899 14.7485 22.4761 12.1223 22.3685 9.52768L22.1051 1.36905L27.9424 0.232872L26.8311 22.7627L20.5473 23.9853L17.4733 15.8442C16.7881 14.0244 16.1102 12.0705 15.3263 9.57471L15.2626 9.58696C15.4083 12.2071 15.512 14.2725 15.5017 16.2608L15.5076 24.966L9.12772 26.207L9.12786 26.2073ZM35.1601 6.35896L33.4348 18.6492C32.9739 21.9309 33.8378 23.9553 36.1222 24.2758C38.4386 24.6021 39.804 23.0543 40.2876 19.6118L42.013 7.3219L47.8363 8.13958L46.156 20.1076C45.2164 26.7996 41.396 29.7088 35.3155 28.8546C29.3634 28.0189 26.6987 24.3311 27.679 17.3496L29.3369 5.54194L35.1603 6.35929L35.1601 6.35896ZM46.3965 3.0917L60.4124 1.92355L60.8093 6.68192L52.6523 7.36165L52.9897 11.4078L60.661 10.7685L61.0552 15.4948L53.3835 16.1341L54.0742 24.4202L48.2152 24.9088L46.3967 3.0917H46.3965ZM82.5691 16.3941C82.5691 23.4464 78.344 27.9315 71.5849 27.9315C64.792 27.9315 61.0552 22.8286 61.0552 16.7515C61.0552 10.3816 65.2475 5.31189 71.9417 5.31189C78.9939 5.31189 82.5691 10.5443 82.5691 16.3941ZM67.2621 16.6545C67.2621 20.7492 69.0492 23.2839 71.8767 23.2839C74.7039 23.2839 76.3615 20.5216 76.3615 16.5887C76.3615 12.8191 74.6716 9.95912 71.8443 9.95912C69.0494 9.95912 67.2621 12.624 67.2621 16.6543V16.6545ZM101.006 11.0816C101.006 18.1341 96.7813 22.6192 90.0218 22.6192C83.2296 22.6192 79.4928 17.5164 79.4928 11.4396C79.4928 5.06974 83.6851 3.53356e-08 90.3792 3.53356e-08C97.4315 -0.000496484 101.006 5.23172 101.006 11.0816H101.006ZM85.6994 11.3416C85.6994 15.4365 87.4865 17.9715 90.3141 17.9715C93.1413 17.9715 94.7989 15.2089 94.7989 11.2767C94.7989 7.50673 93.1092 4.64674 90.2817 4.64674C87.4863 4.64674 85.6989 7.31163 85.6989 11.3416H85.6994Z" fill="#E86F69"/>
</svg>
