<svg width="84" height="29" viewBox="0 0 84 29" fill="none" xmlns="http://www.w3.org/2000/svg">
<path d="M45.2631 6.98954H48.3216V8.67918H45.2631V18.6537C45.2631 19.6112 45.6461 20.2702 46.5586 20.2702C47.1541 20.2481 47.7244 20.0236 48.1751 19.6337V21.4022C47.5172 21.7903 46.7703 22.0017 46.0066 22.0161C44.39 22.0161 43.1903 21.0587 43.1903 18.7044V8.69045H40.9091V7.0008H43.2016L43.3705 2.59082H45.28L45.2631 6.98954Z" fill="#333F48"/>
<path d="M38.4759 0H36.4369V21.757H38.4759V0Z" fill="#333F48"/>
<path d="M52.8898 8.96649H52.8447L52.7152 6.9896H50.7888V21.774H52.8278V11.0729C53.7854 9.11855 55.0189 8.62856 56.5059 8.62856H56.9284V6.71362H56.4158C54.8443 6.71362 53.9769 7.3219 52.8898 8.96649Z" fill="#333F48"/>
<path d="M33.5696 20.2757C33.8486 20.2835 34.1235 20.207 34.3582 20.056V21.7795C33.9674 21.9431 33.5484 22.0292 33.1247 22.0329C32.5769 22.0525 32.0407 21.8717 31.6166 21.5244C31.1926 21.177 30.9097 20.687 30.8209 20.1461C30.421 20.7071 29.8977 21.1689 29.2913 21.496C28.6849 21.8231 28.0116 22.0067 27.3231 22.0329C25.1996 22.0329 23.645 20.5686 23.645 18.0904C23.645 15.3306 25.5545 14.3112 28.1905 13.0778L30.697 11.8894V11.0896C30.697 9.4732 29.9761 8.39183 28.6355 8.39183C27.126 8.39183 26.1684 9.77171 26.191 11.3037H24.304C24.304 8.96631 25.684 6.69092 28.7031 6.69092C31.2547 6.69092 32.7191 8.32424 32.7191 10.9376V18.9071C32.7191 19.628 32.8036 20.2757 33.5696 20.2757ZM30.6801 13.6579L28.7256 14.5759C27.0359 15.3644 25.6671 16.3839 25.6671 18.1242C25.6359 18.4166 25.6684 18.7123 25.7622 18.991C25.8561 19.2698 26.0091 19.5249 26.2108 19.7389C26.4125 19.9529 26.6582 20.1207 26.9308 20.2309C27.2035 20.341 27.4968 20.3909 27.7906 20.3771C29.0861 20.3771 29.9986 19.5266 30.6801 18.6367V13.6579Z" fill="#333F48"/>
<path d="M7.64905 6.98962H9.33882V29.0001H7.32236V20.2252C7.01005 20.7645 6.56521 21.2152 6.02998 21.5345C5.49475 21.8539 4.88685 22.0313 4.26386 22.05C2.14601 22.05 0 20.0562 0 14.3846C0 8.71306 2.39948 6.71365 4.59055 6.71365C5.24301 6.71114 5.88024 6.91065 6.41475 7.28479C6.94927 7.65892 7.35485 8.18932 7.57582 8.80318L7.64905 6.98962ZM7.32236 10.3013C7.18041 9.77706 6.87728 9.31066 6.4558 8.96804C6.03432 8.62543 5.51582 8.42393 4.97357 8.39203C3.46404 8.39203 2.06153 9.90145 2.06153 14.3621C2.06153 18.8228 3.25 20.3097 4.87782 20.3097C6.13388 20.3097 6.85485 19.4198 7.34489 18.5243L7.32236 10.3013Z" fill="#333F48"/>
<path d="M19.033 18.3552C18.205 19.5661 17.208 20.3321 16.1885 20.3321C15.0226 20.3321 14.4481 19.2676 14.4481 17.9328V6.9895H12.3922V18.0229C12.3922 20.7432 13.6651 22.0161 15.5182 22.0161C16.2449 21.9988 16.9563 21.8034 17.5897 21.4469C18.2232 21.0904 18.7594 20.5838 19.1513 19.9716L19.1963 21.757H21.0889V6.9895H19.033V18.3552Z" fill="#333F48"/>
<path d="M61.3046 0.95752H59.2882V3.52578H61.3046V0.95752Z" fill="#333F48"/>
<path d="M79.4195 13.0442C78.1014 12.3627 76.9749 11.7262 76.9749 10.3689C76.9657 10.1044 77.012 9.84098 77.1109 9.59554C77.2098 9.3501 77.3591 9.12813 77.5491 8.94396C77.7391 8.75979 77.9657 8.61751 78.2141 8.52632C78.4625 8.43513 78.7273 8.39705 78.9914 8.41453C80.5854 8.41453 81.3064 9.79441 81.1599 11.2813H83.0299C83.1595 8.62292 81.5824 6.71362 79.0139 6.71362C76.6539 6.71362 75.0204 8.26247 75.0204 10.4928C75.0204 12.8921 76.913 13.934 78.4 14.7394C79.887 15.5448 81.2669 16.3108 81.2669 17.9047C81.2776 18.2204 81.2243 18.535 81.1102 18.8295C80.9962 19.1241 80.8238 19.3926 80.6033 19.6188C80.3829 19.845 80.1189 20.0243 79.8274 20.1459C79.5359 20.2676 79.2228 20.329 78.9069 20.3265C77.3974 20.3265 76.3553 18.9861 76.3159 17.2458H74.4234C74.4853 20.1125 76.1469 22.05 78.9294 22.05C81.5655 22.05 83.244 20.2871 83.244 17.8033C83.2665 15.0605 81.25 14.0016 79.4195 13.0442Z" fill="#333F48"/>
<path d="M61.3053 6.9895H59.2663V21.757H61.3053V6.9895Z" fill="#333F48"/>
<path d="M68.7173 20.332C67.2923 20.332 65.9968 18.9746 65.9968 14.3844C65.9968 9.79422 67.3374 8.41434 68.7399 8.41434C70.2438 8.41434 70.9253 9.99698 70.8633 11.8781H72.7728C72.9023 8.73537 71.5167 6.69653 68.83 6.69653C65.8109 6.69653 63.9634 9.20284 63.9634 14.3675C63.9634 19.5322 65.7715 22.0385 68.6779 22.0385C71.5843 22.0385 72.8404 19.5716 72.8629 16.5584H70.9704C71.0661 18.586 70.3395 20.332 68.7173 20.332Z" fill="#333F48"/>
</svg>
