<svg width="126" height="29" viewBox="0 0 126 29" fill="none" xmlns="http://www.w3.org/2000/svg">
<g clip-path="url(#clip0_0_373)">
<path d="M121.296 27.8667C119.479 27.8667 117.73 27.8667 115.846 27.8667C116.246 25.9707 116.634 24.1281 117.021 22.2856C117.649 19.2814 118.29 16.2907 118.918 13.2865C118.931 13.2198 118.958 13.153 118.971 13.0863C119.212 11.7111 118.944 10.8832 118.17 10.6028C117.209 10.2423 115.846 10.6829 115.419 11.8178C114.724 13.647 114.23 15.5564 113.775 17.479C113.041 20.63 112.386 23.8077 111.745 26.9855C111.598 27.7064 111.371 28.0002 110.597 27.9601C109.127 27.8934 107.645 27.9467 106.028 27.9467C106.469 25.8505 106.884 23.8611 107.31 21.8717C107.939 18.9076 108.58 15.9435 109.181 12.9794C109.367 12.0982 109.461 11.1769 108.46 10.6695C107.591 10.229 106.256 10.6296 105.721 11.6576C105.16 12.7391 104.746 13.9274 104.479 15.1024C103.571 19.1213 102.743 23.1668 101.874 27.199C101.821 27.4394 101.727 27.653 101.647 27.8934C99.8575 27.8934 98.1076 27.8934 96.251 27.8934C97.8138 20.4832 99.3632 13.153 100.913 5.74278C101.781 5.74278 102.649 5.74278 103.624 5.74278C103.704 6.54388 103.785 7.35835 103.905 8.43983C105.321 6.67741 106.95 5.59592 109.061 5.43569C111.265 5.26212 113.027 5.95641 114.042 8.5066C114.296 8.09269 114.403 7.82565 114.577 7.62538C116.3 5.66267 118.504 5.0752 120.988 5.55585C123.246 5.99647 124.555 7.7589 124.474 10.5494C124.421 12.6056 124.074 14.6751 123.674 16.7179C122.965 20.3896 122.111 24.0613 121.296 27.8667Z" fill="#F38632"/>
<path d="M65.1027 11.9647C64.7822 13.6203 64.515 15.1557 64.141 16.6512C64.0876 16.8915 63.5399 17.1585 63.206 17.1718C60.6682 17.2119 58.1303 17.2253 55.5925 17.1852C54.8178 17.1718 54.4972 17.3855 54.3502 18.1866C53.7225 21.4044 53.0012 24.5954 52.2933 27.8666C50.4634 27.8666 48.6468 27.8666 46.6699 27.8666C48.6468 18.6005 50.6236 9.36108 52.6005 0.0949707C57.8899 0.0949707 63.0992 0.0949707 68.482 0.0949707C68.1348 1.75058 67.8276 3.35279 67.4268 4.94165C67.3734 5.14194 66.8258 5.32885 66.5053 5.32885C63.6869 5.35556 60.8551 5.36891 58.0369 5.32885C57.2889 5.3155 56.9817 5.54249 56.8481 6.27683C56.4874 8.13273 56.06 9.98861 55.6325 11.9914C58.8517 11.9647 61.9371 11.9647 65.1027 11.9647Z" fill="#F38632"/>
<path d="M84.524 13.5402C84.4038 16.9983 83.6558 20.2962 82.0263 23.3671C79.5819 27.9601 75.0271 29.095 70.6593 27.9467C67.8277 27.199 66.158 24.9426 65.9577 21.4978C65.7172 17.1719 66.7323 13.0729 69.1099 9.42785C71.5142 5.75611 76.63 4.32748 80.6638 6.07655C83.2151 7.18476 84.2168 9.34773 84.524 11.938C84.5775 12.4853 84.524 13.0195 84.524 13.5402ZM79.2747 14.2345C79.2747 13.9808 79.2747 13.7404 79.2747 13.4868C79.2079 11.3505 77.9924 10.2824 75.882 10.7096C75.0939 10.8698 74.1589 11.2437 73.7047 11.8446C71.5543 14.595 70.8998 17.7994 71.3672 21.2041C71.5543 22.5526 72.4892 23.1668 73.8651 23.1668C75.695 23.1668 76.9238 22.1922 77.7119 20.6434C78.7404 18.6539 79.1411 16.4776 79.2747 14.2345Z" fill="#F38632"/>
<path d="M33.7932 13.4469C33.6731 16.7982 32.9117 20.0026 31.4157 23.0068C29.0248 27.8134 24.6169 29.0685 20.0488 28.0136C17.364 27.3994 15.7479 25.5036 15.3605 22.8599C14.5992 17.6527 15.7478 12.806 18.9669 8.61356C21.3845 5.4759 26.4602 4.48787 30.0399 6.18354C32.3908 7.29174 33.3524 9.3212 33.6864 11.7646C33.7665 12.312 33.7531 12.8861 33.7932 13.4469ZM28.5172 14.4349C28.5974 13.5938 28.5439 12.7659 28.1566 12.0183C27.3818 10.5229 25.5519 10.3092 24.1361 10.9768C22.2261 11.858 21.3177 14.1812 20.8235 16.0772C20.3961 17.7328 19.9019 20.7636 20.9705 22.2724C21.9856 23.7144 24.4834 23.3005 25.6856 22.3391C27.0078 21.2844 27.3284 19.4285 27.7291 17.8797C28.0096 16.7447 28.3969 15.6233 28.5172 14.4349Z" fill="#F38632"/>
<path d="M39.9379 0.0817871C41.7544 0.0817871 43.5042 0.0817871 45.3609 0.0817871C44.9735 1.92432 44.5995 3.70011 44.1988 5.60941C45.6681 5.60941 47.0572 5.60941 48.5799 5.60941C48.246 7.21162 47.9655 8.68031 47.6048 10.1357C47.5648 10.3092 47.1373 10.4962 46.8836 10.5095C45.6948 10.5495 44.4926 10.5228 43.237 10.5228C42.449 14.208 41.6609 17.8129 40.9396 21.4313C40.7259 22.4727 41.1667 22.9801 42.2754 23.167C43.0634 23.3005 43.8649 23.3139 44.7998 23.3939C44.4659 24.9561 44.1721 26.4381 43.8248 27.8935C43.7847 28.0671 43.3974 28.2806 43.1969 28.254C41.4606 28.0671 39.6574 28.0404 38.0011 27.5597C35.904 26.9589 34.9156 24.9695 35.2896 22.4326C35.6101 20.1762 36.1311 17.933 36.5719 15.69C36.9058 13.9943 37.2664 12.312 37.6404 10.5095C36.7722 10.5095 36.0109 10.5095 35.156 10.5095C35.343 9.53483 35.4499 8.66696 35.6903 7.8258C35.7838 7.50536 36.1311 7.15821 36.4383 7.03805C38.335 6.31706 39.1765 4.94183 39.3101 2.96577C39.3768 2.00444 39.7108 1.05647 39.9379 0.0817871Z" fill="#F38632"/>
<path d="M0 28.2005C0.360642 26.4648 0.654498 24.9561 1.01514 23.4607C1.05521 23.2871 1.40249 23.1135 1.62956 23.0734C2.00357 23.0067 2.40428 23.0468 2.79163 23.0201C4.84863 22.8732 5.81034 22.1255 6.25113 20.0961C7.65362 13.7406 9.01604 7.37183 10.3651 0.98969C10.5121 0.268696 10.7391 -0.0250422 11.5138 0.00166133C13.0232 0.0550683 14.5325 0.0150131 16.2022 0.0150131C15.8282 1.79079 15.4676 3.47311 15.1202 5.14208C13.9848 10.4828 12.8495 15.8234 11.7141 21.1508C11.594 21.6982 11.447 22.2457 11.2734 22.7797C10.3651 25.7438 8.38826 27.4929 5.31612 27.8667C3.59306 28.0938 1.86999 28.0938 0 28.2005Z" fill="#F38632"/>
<path d="M91.3494 5.63612C91.4562 6.58408 91.5364 7.41189 91.6298 8.27976C95.1294 5.52929 96.2781 5.04864 98.9362 5.28897C98.5755 6.99799 98.2283 8.70701 97.8142 10.4026C97.7607 10.603 97.36 10.8033 97.0929 10.8432C94.328 11.2305 92.7653 12.9262 92.1642 15.5297C91.2826 19.375 90.4545 23.2337 89.6531 27.0924C89.5195 27.76 89.2657 27.9602 88.6111 27.9336C87.1419 27.8935 85.6593 27.9202 84.0163 27.9202C84.337 26.3714 84.6308 24.9427 84.938 23.5141C86.1134 17.933 87.3156 12.3521 88.4376 6.75766C88.6245 5.80968 88.9851 5.51594 89.8801 5.62276C90.3209 5.68952 90.7751 5.63612 91.3494 5.63612Z" fill="#F38632"/>
</g>
<defs>
<clipPath id="clip0_0_373">
<rect width="125.321" height="29" fill="white"/>
</clipPath>
</defs>
</svg>
