<svg width="48" height="48" viewBox="0 0 48 48" fill="none" xmlns="http://www.w3.org/2000/svg">
<circle cx="24" cy="24" r="24" fill="#19B885"/>
<path d="M30.3722 20.6198C26.8532 21.7886 21.1468 21.7886 17.6264 20.6198" stroke="white" stroke-width="2" stroke-linecap="round" stroke-linejoin="round"/>
<path d="M22.0167 26.6916H25.9834" stroke="white" stroke-width="2" stroke-linecap="round" stroke-linejoin="round"/>
<path d="M25.8884 21.4302V21.4968C25.8884 26.2908 25.8884 28.2075 26.8333 31.0833" stroke="white" stroke-width="2" stroke-linecap="round" stroke-linejoin="round"/>
<path d="M22.1116 21.4302V21.4968C22.1116 26.2908 22.1116 28.2075 21.1667 31.0833" stroke="white" stroke-width="2" stroke-linecap="round" stroke-linejoin="round"/>
<path d="M33.0156 14.9844C37.9948 19.9636 37.9948 28.0364 33.0156 33.0156C28.0365 37.9948 19.9636 37.9948 14.9845 33.0156C10.0053 28.0364 10.0053 19.9635 14.9845 14.9844C19.9636 10.0052 28.0365 10.0052 33.0156 14.9844" stroke="white" stroke-width="2" stroke-linecap="round" stroke-linejoin="round"/>
<path d="M24.4758 16.795C24.7386 17.0578 24.7386 17.4839 24.4758 17.7467C24.2131 18.0094 23.787 18.0094 23.5242 17.7467C23.2614 17.4839 23.2614 17.0578 23.5242 16.795C23.787 16.5322 24.2131 16.5322 24.4758 16.795" stroke="white" stroke-width="2" stroke-linecap="round" stroke-linejoin="round"/>
</svg>
