<svg width="48" height="48" viewBox="0 0 48 48" fill="none" xmlns="http://www.w3.org/2000/svg">
<circle cx="24" cy="24" r="24" fill="#19B885"/>
<path d="M24 11.25V14.0833" stroke="white" stroke-width="2" stroke-linecap="round" stroke-linejoin="round"/>
<path d="M12.1184 19.4001C11.5659 20.8295 11.25 22.3765 11.25 24C11.25 31.0422 16.9577 36.75 24 36.75C31.0422 36.75 36.75 31.0422 36.75 24C36.75 16.9577 31.0422 11.25 24 11.25" stroke="white" stroke-width="2" stroke-linecap="round" stroke-linejoin="round"/>
<path d="M22.0025 22.0026L14.99 14.9901" stroke="white" stroke-width="2" stroke-linecap="round" stroke-linejoin="round"/>
<path d="M26.0035 21.9966C27.1099 23.103 27.1099 24.897 26.0035 26.0035C24.897 27.11 23.103 27.11 21.9965 26.0035C20.89 24.897 20.89 23.103 21.9965 21.9966C23.103 20.8901 24.897 20.8901 26.0035 21.9966" stroke="white" stroke-width="2" stroke-linecap="round" stroke-linejoin="round"/>
</svg>
