<svg width="48" height="48" viewBox="0 0 48 48" fill="none" xmlns="http://www.w3.org/2000/svg">
<circle cx="24" cy="24" r="24" fill="#19B885"/>
<path d="M34.71 17.0853C37.43 21.2928 37.4286 26.7102 34.7114 30.9162" stroke="white" stroke-width="1.5" stroke-linecap="round" stroke-linejoin="round"/>
<path d="M29.0258 18.9743C31.8014 21.7499 31.8014 26.2501 29.0258 29.0257C26.2502 31.8013 21.75 31.8013 18.9744 29.0257C16.1988 26.2501 16.1988 21.7499 18.9744 18.9743C21.75 16.1987 26.2502 16.1987 29.0258 18.9743" stroke="white" stroke-width="1.5" stroke-linecap="round" stroke-linejoin="round"/>
<path d="M27.2881 17.6973L30.9488 13.2504C31.4814 12.603 32.4561 12.5563 33.0497 13.1484L34.8531 14.9518C35.4467 15.5454 35.3985 16.5201 34.7511 17.0528L30.3042 20.7134" stroke="white" stroke-width="1.5" stroke-linecap="round" stroke-linejoin="round"/>
<path d="M20.712 30.3027L17.0513 34.7496C16.5186 35.397 15.544 35.4438 14.9504 34.8516L13.147 33.0482C12.5534 32.4546 12.6016 31.48 13.249 30.9473L17.6959 27.2866" stroke="white" stroke-width="1.5" stroke-linecap="round" stroke-linejoin="round"/>
<path d="M17.6972 20.7119L13.2489 17.0512C12.6015 16.5186 12.5547 15.5439 13.1469 14.9503L14.9503 13.1469C15.5439 12.5533 16.5186 12.6015 17.0512 13.2489L20.7119 17.6958" stroke="white" stroke-width="1.5" stroke-linecap="round" stroke-linejoin="round"/>
<path d="M30.3028 27.288L34.7497 30.9486C35.3971 31.4813 35.4438 32.456 34.8517 33.0495L33.0483 34.853C32.4547 35.4466 31.48 35.3984 30.9473 34.751L27.2867 30.304" stroke="white" stroke-width="1.5" stroke-linecap="round" stroke-linejoin="round"/>
<path d="M30.9161 34.7115C26.71 37.4287 21.2913 37.4301 17.0852 34.7101" stroke="white" stroke-width="1.5" stroke-linecap="round" stroke-linejoin="round"/>
<path d="M13.2886 17.0839C10.5714 21.2899 10.57 26.7073 13.29 30.9148" stroke="white" stroke-width="1.5" stroke-linecap="round" stroke-linejoin="round"/>
<path d="M30.9147 13.2901C26.7072 10.5701 21.2899 10.5716 17.0838 13.2887" stroke="white" stroke-width="1.5" stroke-linecap="round" stroke-linejoin="round"/>
</svg>
