<svg width="160" height="162" viewBox="0 0 160 162" fill="none" xmlns="http://www.w3.org/2000/svg">
<g clip-path="url(#clip0_0_291)">
<path d="M1.91876 2.0791V120.879L79.969 159.92L158.019 120.879V2.0791H1.91876Z" fill="#90D7EE"/>
<path d="M79.9691 161.565L0.464233 121.779V0.620605H159.505V121.81L79.9691 161.565ZM3.37332 119.979L79.9691 158.276L156.565 119.979V3.53785H3.37332V119.979Z" fill="#E75925"/>
<path d="M9.00583 8.37915V116.1L79.8453 151.603L150.685 116.1V8.37915H9.00583Z" fill="white"/>
<path d="M79.8453 153.093L7.67508 116.907V7.04468H151.985V116.907L79.8453 153.093ZM10.3366 115.293L79.8453 150.145L149.354 115.293V9.71364H10.3366V115.293Z" fill="#456473"/>
<path d="M8.97485 45.3103H150.716V102.414H8.97485V45.3103Z" fill="#456473"/>
<path d="M59.7601 22.0343C60.0696 21.6618 60.2244 21.2894 60.2244 20.8549C60.2244 20.1722 59.6673 19.7067 58.9864 19.7067C58.3675 19.7067 57.8104 20.0791 57.7485 20.8549L56.8201 20.6067C56.9748 19.4584 57.9652 18.7756 59.0483 18.7756C60.2553 18.7756 61.2766 19.5825 61.2766 20.8239C61.2766 21.5067 60.9671 22.0963 60.5338 22.5929C59.6054 23.617 59.6054 23.6791 58.646 24.8274H61.2766V25.7584H56.9129V25.386L59.7601 22.0343Z" fill="#456473"/>
<path d="M56.9748 30.5689V27.124H64.5261C64.6189 27.5896 64.6499 28.1482 64.6499 28.6137C64.6499 33.8896 60.3482 38.2344 55.0561 38.2344C49.764 38.2344 45.4623 33.9206 45.4623 28.6137C45.4623 23.3068 49.764 18.993 55.0561 18.993V22.3758C51.6518 22.3758 48.8665 25.1068 48.8665 28.5827C48.8665 31.9965 51.5899 34.7896 55.0561 34.7896C57.7795 34.7896 60.1006 33.0206 60.9052 30.5689H56.9748ZM71.675 28.1482C71.675 25.6344 71.8298 24.6102 72.263 23.9275C72.8201 23.1516 73.7795 22.7171 75.0793 22.7171C76.2553 22.7171 77.2147 23.0275 77.7099 23.6482C78.0812 24.0206 78.2669 24.6723 78.2669 25.6344V26.224H76.1315C76.1006 25.1378 76.1006 24.9516 75.8839 24.7344C75.7292 24.4861 75.4197 24.362 75.0483 24.362C74.677 24.362 74.2747 24.5171 74.1199 24.8275C73.8723 25.1999 73.8104 26.0689 73.8104 28.1171C73.8104 29.8551 73.9033 30.8482 74.058 31.2827C74.1818 31.6551 74.5222 31.8413 74.9864 31.8413C75.7911 31.8413 76.0696 31.4689 76.1315 29.824H78.2669C78.2669 31.1896 78.1741 31.7171 77.8955 32.2137C77.5242 32.9585 76.5029 33.393 74.9864 33.393C73.2534 33.393 72.263 32.7723 71.8298 31.5309C71.7679 31.0964 71.675 29.8861 71.675 28.1482ZM79.5358 22.9654H82.8162C84.4255 22.9654 84.6731 22.9965 85.2611 23.4309C85.7253 23.8033 86.0039 24.5171 86.0039 25.4792C86.0039 26.2861 85.8491 26.9689 85.5396 27.3723C85.2302 27.7447 84.9207 27.9309 84.1779 28.0861C85.5396 28.2413 86.0348 28.893 86.0348 30.662C86.0348 30.9723 86.0658 31.4999 86.0658 32.2758C86.0967 32.7413 86.0967 32.8654 86.2205 33.2999H83.9613C83.8685 32.6171 83.8685 32.6171 83.8685 31.3447C83.8685 30.1033 83.7756 29.4827 83.559 29.2033C83.4042 29.0482 83.1876 28.9551 82.6305 28.9551H81.6093V33.2999H79.5667L79.5358 22.9654ZM82.5377 27.4344C83.4661 27.4344 83.8375 27.062 83.8375 25.9447C83.8375 25.3551 83.6828 24.9206 83.4661 24.7033C83.3114 24.5482 83.1567 24.5482 82.6305 24.5482H81.7021V27.4654L82.5377 27.4344ZM87.3346 28.1171C87.3346 25.7275 87.4584 24.8896 87.8917 24.1447C88.3559 23.3068 89.4081 22.7792 90.8627 22.7792C92.4719 22.7792 93.5861 23.3999 94.0193 24.5171C94.2669 25.0758 94.3288 26.193 94.3288 28.1482C94.3288 30.2896 94.205 31.3447 93.9574 31.9033C93.4932 32.9275 92.441 33.393 90.9864 33.393C89.501 33.393 88.5106 32.9275 88.0155 32.0275C87.4584 31.3758 87.3346 30.5378 87.3346 28.1171ZM90.8008 31.8413C91.4197 31.8413 91.822 31.5309 91.9768 30.9102C92.0696 30.5378 92.1006 29.1723 92.1006 27.7137C92.1006 26.193 92.0077 25.2309 91.853 24.8896C91.7292 24.5792 91.2959 24.3309 90.8317 24.3309C90.2437 24.3309 89.8104 24.5792 89.6866 25.0447C89.5629 25.4171 89.5319 26.5344 89.5319 28.2102C89.5319 29.5758 89.5628 30.4758 89.6557 30.9102C89.7795 31.562 90.1509 31.8413 90.8008 31.8413ZM94.9787 22.9654H97.1141L97.8259 26.7206C98.0735 28.0861 98.1354 29.3275 98.1973 31.7482C98.5686 28.5827 98.7853 27.7137 98.971 26.7206L99.7756 22.9654H102.159L102.932 26.7206C103.304 28.4585 103.304 29.6378 103.489 31.7482C103.613 30.0102 103.799 28.7689 104.108 26.7206L104.789 22.9654H106.677L104.634 33.2999H102.282L101.261 28.4896C101.106 27.6827 100.89 25.7585 100.89 24.6413C100.58 26.9068 100.58 27.2792 100.302 28.4896L99.2804 33.2999H96.8665L94.9787 22.9654ZM107.574 22.9654H110.484C112.155 22.9654 112.712 23.0585 113.207 23.4309C113.888 23.8965 114.228 24.7344 114.352 26.3482C114.383 26.9689 114.445 27.7758 114.445 28.5827C114.445 30.4447 114.321 31.3137 114.073 31.9654C113.702 32.8033 112.681 33.3309 111.35 33.3309H107.636L107.574 22.9654ZM110.7 31.593C111.443 31.593 111.876 31.4378 111.969 31.0344C112.124 30.662 112.217 30.0102 112.217 28.3344C112.217 26.4723 112.186 25.6965 111.969 25.1689C111.814 24.7965 111.381 24.4861 110.762 24.4861H109.834V31.562L110.7 31.593ZM67.8994 18.8999H68.6112V37.9861H67.8994V18.8999Z" fill="#456473"/>
<path d="M34.6925 54L36.5493 57.6723L40.5416 58.2635L37.6325 61.1268L38.2515 65.1724L34.6925 63.243L31.0716 65.1724L31.7524 61.1268L28.7814 58.2635L32.8975 57.6723L34.6925 54ZM125.029 54L126.865 57.6723L130.909 58.2635L127.985 61.1268L128.7 65.1724L125.029 63.243L121.42 65.1724L122.104 61.1268L119.149 58.2635L123.225 57.6723L125.029 54Z" fill="#E75925"/>
<path d="M67.8994 66.8173H65.9807V60.1138H58.677V66.8173H56.7582V52.2931H58.677V58.5311H65.9807V52.2931H67.8994V66.8173ZM73.3462 66.8173H71.4275V52.2931H73.3462V66.8173ZM87.5513 64.9242C87.0561 65.638 86.3752 66.1656 85.5087 66.5069C84.6422 66.8483 83.6209 67.0345 82.4449 67.0345C81.2689 67.0345 80.2166 66.7552 79.2882 66.1966C78.3598 65.638 77.6789 64.8621 77.1528 63.838C76.6576 62.8138 76.4101 61.6345 76.3791 60.269V58.9966C76.3791 56.7931 76.8743 55.1173 77.8955 53.9069C78.9168 52.6966 80.3404 52.1069 82.1973 52.1069C83.7137 52.1069 84.9207 52.4793 85.8491 53.2552C86.7776 54.0311 87.3346 55.1173 87.5513 56.5449H85.6325C85.2611 54.6207 84.147 53.6587 82.1973 53.6587C80.9284 53.6587 79.9381 54.1242 79.2882 55.0242C78.6383 55.9242 78.2979 57.2276 78.2979 58.9345V60.1138C78.2979 61.7587 78.6692 63.0311 79.412 63.9931C80.1547 64.9552 81.1451 65.4518 82.4139 65.4518C83.1257 65.4518 83.7447 65.3587 84.3017 65.2035C84.8588 65.0483 85.2921 64.769 85.6325 64.3966V61.138H82.2901V59.5862H87.5513V64.9242ZM101.88 66.8173H99.9613V60.1138H92.6576V66.8173H90.7389V52.2931H92.6576V58.5311H99.9613V52.2931H101.88V66.8173ZM24.5416 81V86.6794H22.6228V72.1552H27.9768C29.5551 72.1552 30.793 72.5587 31.6905 73.3656C32.588 74.1725 33.0522 75.2587 33.0522 76.5931C33.0522 77.9897 32.619 79.0759 31.7215 79.8518C30.8549 80.6276 29.5861 81 27.9458 81H24.5416ZM24.5416 79.4483H27.9768C28.9981 79.4483 29.7718 79.2 30.3288 78.7345C30.8859 78.238 31.1335 77.5552 31.1335 76.6552C31.1335 75.7862 30.8549 75.1035 30.3288 74.5759C29.7718 74.0483 29.029 73.8 28.1006 73.769H24.5416V79.4483ZM43.6983 79.9759H37.4159V85.1276H44.6886V86.6794H35.4971V72.1552H44.5958V73.7069H37.3849V78.3931H43.6673V79.9759H43.6983ZM52.3946 80.8138H48.9903V86.6794H47.0716V72.1552H51.8685C53.5087 72.1552 54.7466 72.5276 55.6441 73.2725C56.5106 74.0173 56.9749 75.1035 56.9749 76.5311C56.9749 77.4311 56.7273 78.238 56.2321 78.8897C55.7369 79.5725 55.0561 80.069 54.1896 80.4104L57.5938 86.5863V86.7104H55.5513L52.3946 80.8138ZM48.9903 79.2311H51.9304C52.8898 79.2311 53.6325 78.9828 54.1896 78.4862C54.7466 77.9897 55.0252 77.338 55.0252 76.5C55.0252 75.6 54.7466 74.9173 54.2205 74.4207C53.6944 73.9552 52.9207 73.7069 51.8994 73.6759H48.9594V79.2311H48.9903ZM67.6209 80.2862H61.5551V86.7104H59.6364V72.1862H68.6112V73.738H61.5551V78.7035H67.6209V80.2862ZM82.0426 79.8828C82.0426 81.3104 81.795 82.5518 81.3308 83.6069C80.8665 84.6621 80.1857 85.469 79.2882 86.0276C78.4217 86.5863 77.4004 86.8656 76.2244 86.8656C75.0793 86.8656 74.058 86.5863 73.1915 86.0276C72.294 85.469 71.6132 84.6621 71.1489 83.6069C70.6538 82.5518 70.4062 81.3725 70.4062 79.9759V78.9207C70.4062 77.5242 70.6538 76.2828 71.118 75.2276C71.6132 74.1414 72.294 73.3345 73.1605 72.7759C74.058 72.2173 75.0484 71.938 76.1934 71.938C77.3694 71.938 78.3907 72.2173 79.2573 72.7759C80.1547 73.3345 80.8356 74.1414 81.2998 75.2276C81.764 76.2828 82.0116 77.5242 82.0116 78.9518L82.0426 79.8828ZM80.1547 78.9518C80.1547 77.2138 79.8143 75.9104 79.1335 74.9794C78.4526 74.0483 77.4932 73.5828 76.2244 73.5828C75.0174 73.5828 74.058 74.0483 73.3772 74.9794C72.6963 75.9104 72.325 77.1828 72.294 78.8276V79.8828C72.294 81.5587 72.6344 82.8621 73.3462 83.8242C74.058 84.7863 75.0174 85.2518 76.2244 85.2518C77.4623 85.2518 78.4217 84.7863 79.1025 83.8863C79.7834 82.9863 80.1238 81.6828 80.1547 80.0069V78.9518ZM90.2128 80.8138H86.8085V86.6794H84.8897V72.1552H89.6867C91.3269 72.1552 92.5648 72.5276 93.4623 73.2725C94.3288 74.0173 94.793 75.1035 94.793 76.5311C94.793 77.4311 94.5454 78.238 94.0503 78.8897C93.5551 79.5725 92.8743 80.069 92.0077 80.4104L95.412 86.5863V86.7104H93.3694L90.2128 80.8138ZM86.8085 79.2311H89.7486C90.7079 79.2311 91.4507 78.9828 92.0077 78.4862C92.5648 77.9897 92.8433 77.338 92.8433 76.5C92.8433 75.6 92.5648 74.9173 92.0387 74.4207C91.5126 73.9552 90.7389 73.7069 89.7176 73.6759H86.7776V79.2311H86.8085ZM99.9304 72.1552L104.665 84.0104L109.4 72.1552H111.876V86.6794H109.988V81.0311L110.174 74.9173L105.408 86.6794H103.954L99.2186 74.9483L99.4043 81.0311V86.6794H97.4855V72.1552H99.9304ZM123.451 79.9759H117.168V85.1276H124.472V86.6794H115.25V72.1552H124.348V73.7069H117.137V78.3931H123.42V79.9759H123.451ZM132.147 80.8138H128.743V86.6794H126.824V72.1552H131.621C133.261 72.1552 134.499 72.5276 135.397 73.2725C136.263 74.0173 136.727 75.1035 136.727 76.5311C136.727 77.4311 136.48 78.238 135.985 78.8897C135.489 79.5725 134.809 80.069 133.942 80.4104L137.346 86.5863V86.7104H135.304L132.147 80.8138ZM128.743 79.2311H131.683C132.642 79.2311 133.385 78.9828 133.942 78.4862C134.499 77.9897 134.778 77.338 134.778 76.5C134.778 75.6 134.499 74.9173 133.973 74.4207C133.447 73.9552 132.673 73.7069 131.652 73.6759H128.712V79.2311H128.743Z" fill="white"/>
<path d="M55.0282 95.3224C55.0282 95.099 54.9488 94.9273 54.7899 94.8073C54.6331 94.6893 54.3505 94.5631 53.942 94.4286C53.5335 94.2962 53.2106 94.1659 52.9733 94.0376C52.3234 93.6859 51.9985 93.2121 51.9985 92.6162C51.9985 92.3059 52.0851 92.0297 52.2584 91.7876C52.4338 91.5435 52.6845 91.3531 53.0104 91.2166C53.3364 91.08 53.7016 91.0117 54.106 91.0117C54.5166 91.0117 54.8807 91.0862 55.1985 91.2352C55.5182 91.3842 55.7669 91.5931 55.9443 91.8621C56.1217 92.1331 56.2104 92.4404 56.2104 92.7838H55.0313C55.0313 92.5231 54.9488 92.3193 54.7838 92.1724C54.6187 92.0276 54.3866 91.9552 54.0874 91.9552C53.7986 91.9552 53.5747 92.0162 53.4159 92.1383C53.257 92.2604 53.1776 92.4207 53.1776 92.6193C53.1776 92.8055 53.2704 92.9617 53.4561 93.088C53.6438 93.2142 53.9203 93.3321 54.2855 93.4417C54.956 93.6445 55.444 93.8959 55.7493 94.1959C56.0567 94.4959 56.2104 94.8683 56.2104 95.3131C56.2104 95.8097 56.0227 96.1997 55.6472 96.4831C55.2738 96.7645 54.7693 96.9052 54.1339 96.9052C53.6944 96.9052 53.2941 96.8245 52.9331 96.6631C52.572 96.5017 52.2966 96.2804 52.1068 95.999C51.917 95.7197 51.8221 95.3949 51.8221 95.0245H53.0043C53.0043 95.6576 53.3808 95.9742 54.1339 95.9742C54.4144 95.9742 54.6331 95.9162 54.7899 95.8004C54.9488 95.6866 55.0282 95.5273 55.0282 95.3224ZM56.9315 92.5635H57.9961L58.0333 93.0414C58.3345 92.6711 58.742 92.4859 59.2557 92.4859C59.8025 92.4859 60.178 92.7021 60.3822 93.1345C60.6814 92.7021 61.1074 92.4859 61.6603 92.4859C62.1204 92.4859 62.4629 92.6204 62.6878 92.8893C62.9127 93.1583 63.0251 93.5638 63.0251 94.1059V96.8276H61.8863V94.109C61.8863 93.8669 61.8388 93.69 61.7439 93.5783C61.6511 93.4666 61.485 93.4107 61.2456 93.4107C60.9052 93.4107 60.67 93.5742 60.54 93.9011L60.5431 96.8276H59.4074V94.1121C59.4074 93.8659 59.3589 93.688 59.2619 93.5783C59.1649 93.4666 58.9999 93.4107 58.7667 93.4107C58.4449 93.4107 58.2117 93.5452 58.0673 93.8142V96.8276H56.9315V92.5635ZM67.5095 96.8276H66.3613C66.3097 96.7242 66.2716 96.5969 66.2468 96.4459C65.9724 96.7521 65.6155 96.9052 65.176 96.9052C64.7593 96.9052 64.4137 96.7852 64.1393 96.5452C63.8669 96.3031 63.7308 95.998 63.7308 95.6297C63.7308 95.1786 63.8968 94.8321 64.229 94.59C64.5632 94.348 65.046 94.2259 65.6774 94.2238H66.2004V93.9786C66.2004 93.7821 66.1498 93.6248 66.0487 93.5069C65.9476 93.389 65.7888 93.33 65.5721 93.33C65.3803 93.33 65.2307 93.3755 65.1234 93.4666C65.0141 93.5597 64.9594 93.6859 64.9594 93.8452H63.8236C63.8236 93.599 63.8999 93.3704 64.0526 93.1593C64.2032 92.9504 64.4178 92.7859 64.6963 92.6659C64.9728 92.5459 65.2843 92.4859 65.6309 92.4859C66.155 92.4859 66.5707 92.6183 66.8781 92.8831C67.1856 93.1459 67.3393 93.5162 67.3393 93.9942V95.8438C67.3434 96.2473 67.4001 96.5524 67.5095 96.7593V96.8276ZM65.4236 96.0362C65.5907 96.0362 65.7455 95.999 65.8878 95.9245C66.0281 95.848 66.1323 95.7476 66.2004 95.6235V94.888H65.7764C65.207 94.888 64.9047 95.0855 64.8696 95.4807L64.8634 95.5459C64.8634 95.6886 64.914 95.8055 65.0151 95.8966C65.1141 95.9897 65.2503 96.0362 65.4236 96.0362ZM69.4097 90.7759V96.8276H68.2708V90.7759H69.4097ZM71.5451 90.7759V96.8276H70.4031V90.7759H71.5451ZM74.6863 93.9135V94.829H72.4766V93.9135H74.6863ZM77.8955 96.8276H75.6735V91.0924H77.6758C78.3711 91.0924 78.8983 91.2248 79.2573 91.4897C79.6162 91.7566 79.7957 92.1476 79.7957 92.6628C79.7957 92.9442 79.7235 93.1914 79.5791 93.4045C79.4347 93.6197 79.2346 93.7769 78.9787 93.8762C79.2717 93.9507 79.5028 94.0997 79.672 94.3231C79.8411 94.5445 79.9257 94.8176 79.9257 95.1424C79.9257 95.6928 79.7493 96.1097 79.3965 96.3931C79.0458 96.6766 78.5455 96.8214 77.8955 96.8276ZM77.9327 94.3293H76.8526V95.878H77.8615C78.14 95.878 78.3567 95.8117 78.5114 95.6793C78.6682 95.5469 78.7466 95.3638 78.7466 95.13C78.7466 94.6045 78.4753 94.3376 77.9327 94.3293ZM76.8526 92.0483V93.4945H77.7253C78.3195 93.4842 78.6166 93.2462 78.6166 92.7807C78.6166 92.5221 78.5413 92.3348 78.3907 92.219C78.2401 92.1052 78.0018 92.0483 77.6758 92.0483H76.8526ZM83.3114 96.8276L83.2805 96.3931C82.9999 96.7345 82.612 96.9052 82.1168 96.9052C81.6609 96.9052 81.3132 96.7738 81.0739 96.5111C80.8346 96.2483 80.7118 95.8635 80.7056 95.3566V92.5635H81.8414V95.3193C81.8414 95.7621 82.0436 95.9835 82.448 95.9835C82.8317 95.9835 83.0958 95.85 83.2402 95.5831V92.5635H84.3791V96.8276H83.3114ZM87.5389 95.6483C87.5389 95.5097 87.4698 95.4 87.3315 95.3193C87.1954 95.2407 86.9746 95.1693 86.6692 95.1052C85.6583 94.8921 85.1528 94.4617 85.1528 93.8142C85.1528 93.4355 85.3096 93.119 85.6232 92.8645C85.9368 92.6121 86.3464 92.4859 86.8518 92.4859C87.3903 92.4859 87.8215 92.6131 88.1455 92.8676C88.4694 93.1221 88.6313 93.4531 88.6313 93.8607H87.4955C87.4955 93.6973 87.4429 93.5628 87.3377 93.4573C87.2325 93.3497 87.0685 93.2959 86.8456 93.2959C86.6558 93.2959 86.5083 93.3393 86.4031 93.4262C86.2979 93.5131 86.2453 93.6238 86.2453 93.7583C86.2453 93.8845 86.3051 93.9859 86.4248 94.0624C86.5444 94.1411 86.7456 94.2083 87.0282 94.2642C87.3109 94.32 87.5492 94.3842 87.7431 94.4566C88.3435 94.6759 88.6437 95.0576 88.6437 95.6017C88.6437 95.9907 88.4766 96.3052 88.1424 96.5452C87.8102 96.7852 87.381 96.9052 86.8549 96.9052C86.498 96.9052 86.1813 96.8421 85.9048 96.7159C85.6284 96.5876 85.4117 96.4128 85.2549 96.1914C85.0981 95.97 85.0197 95.73 85.0197 95.4714H86.0967C86.107 95.6742 86.1813 95.8293 86.3195 95.9369C86.4598 96.0445 86.6465 96.0983 86.8797 96.0983C87.0963 96.0983 87.2603 96.0569 87.3718 95.9742C87.4832 95.8914 87.5389 95.7828 87.5389 95.6483ZM90.5718 92.5635V96.8276H89.4329V92.5635H90.5718ZM89.3648 91.4617C89.3648 91.29 89.4215 91.1493 89.535 91.0397C89.6505 90.93 89.8063 90.8752 90.0023 90.8752C90.1963 90.8752 90.351 90.93 90.4665 91.0397C90.5821 91.1493 90.6398 91.29 90.6398 91.4617C90.6398 91.6355 90.581 91.7773 90.4634 91.8869C90.3479 91.9966 90.1942 92.0514 90.0023 92.0514C89.8104 92.0514 89.6567 91.9966 89.5412 91.8869C89.4236 91.7773 89.3648 91.6355 89.3648 91.4617ZM91.4847 92.5635H92.5524L92.5865 93.0569C92.8918 92.6762 93.2993 92.4859 93.8089 92.4859C94.2587 92.4859 94.5939 92.6183 94.8147 92.8831C95.0355 93.148 95.1479 93.5452 95.152 94.0748V96.8276H94.0162V94.0997C94.0162 93.8597 93.9647 93.6848 93.8615 93.5752C93.7563 93.4655 93.5819 93.4107 93.3385 93.4107C93.0187 93.4107 92.7783 93.5473 92.6174 93.8204V96.8276H91.4847V92.5635ZM97.9714 96.9052C97.3462 96.9052 96.8387 96.7138 96.4487 96.3311C96.0567 95.9483 95.8607 95.4373 95.8607 94.798V94.6893C95.8607 94.2611 95.9433 93.8783 96.1083 93.5411C96.2734 93.2017 96.5065 92.9411 96.8077 92.759C97.111 92.5769 97.4566 92.4859 97.8445 92.4859C98.4263 92.4859 98.8843 92.67 99.2186 93.0383C99.5507 93.4045 99.7168 93.9259 99.7168 94.6024V95.068H97.012C97.0491 95.3452 97.1595 95.5676 97.3431 95.7352C97.5288 95.9049 97.763 95.9897 98.0456 95.9897C98.483 95.9897 98.8245 95.8304 99.07 95.5117L99.6271 96.1386C99.4579 96.3807 99.2278 96.569 98.9369 96.7035C98.646 96.838 98.3242 96.9052 97.9714 96.9052ZM97.8414 93.4076C97.6144 93.4076 97.4318 93.4842 97.2936 93.6373C97.1533 93.7883 97.0636 94.0055 97.0244 94.289H98.6027V94.199C98.5965 93.9466 98.5284 93.7521 98.3984 93.6155C98.2664 93.4769 98.0807 93.4076 97.8414 93.4076ZM102.666 95.6483C102.666 95.5097 102.597 95.4 102.459 95.3193C102.321 95.2407 102.1 95.1693 101.797 95.1052C100.786 94.8921 100.28 94.4617 100.28 93.8142C100.28 93.4355 100.437 93.119 100.75 92.8645C101.062 92.6121 101.471 92.4859 101.976 92.4859C102.517 92.4859 102.949 92.6131 103.273 92.8676C103.597 93.1221 103.759 93.4531 103.759 93.8607H102.623C102.623 93.6973 102.57 93.5628 102.465 93.4573C102.36 93.3497 102.196 93.2959 101.973 93.2959C101.781 93.2959 101.634 93.3393 101.53 93.4262C101.425 93.5131 101.373 93.6238 101.373 93.7583C101.373 93.8845 101.432 93.9859 101.552 94.0624C101.67 94.1411 101.871 94.2083 102.156 94.2642C102.438 94.32 102.676 94.3842 102.87 94.4566C103.469 94.6759 103.768 95.0576 103.768 95.6017C103.768 95.9907 103.602 96.3052 103.27 96.5452C102.937 96.7852 102.508 96.9052 101.982 96.9052C101.625 96.9052 101.309 96.8421 101.032 96.7159C100.756 96.5876 100.539 96.4128 100.382 96.1914C100.225 95.97 100.147 95.73 100.147 95.4714H101.224C101.234 95.6742 101.309 95.8293 101.447 95.9369C101.585 96.0445 101.771 96.0983 102.004 96.0983C102.223 96.0983 102.388 96.0569 102.499 95.9742C102.61 95.8914 102.666 95.7828 102.666 95.6483ZM106.801 95.6483C106.801 95.5097 106.733 95.4 106.597 95.3193C106.458 95.2407 106.238 95.1693 105.934 95.1052C104.923 94.8921 104.418 94.4617 104.418 93.8142C104.418 93.4355 104.575 93.119 104.888 92.8645C105.2 92.6121 105.608 92.4859 106.114 92.4859C106.654 92.4859 107.087 92.6131 107.41 92.8676C107.732 93.1221 107.893 93.4531 107.893 93.8607H106.757C106.757 93.6973 106.706 93.5628 106.603 93.4573C106.497 93.3497 106.333 93.2959 106.111 93.2959C105.919 93.2959 105.771 93.3393 105.668 93.4262C105.563 93.5131 105.51 93.6238 105.51 93.7583C105.51 93.8845 105.57 93.9859 105.69 94.0624C105.807 94.1411 106.007 94.2083 106.29 94.2642C106.573 94.32 106.811 94.3842 107.005 94.4566C107.605 94.6759 107.906 95.0576 107.906 95.6017C107.906 95.9907 107.74 96.3052 107.407 96.5452C107.075 96.7852 106.646 96.9052 106.12 96.9052C105.763 96.9052 105.446 96.8421 105.17 96.7159C104.893 96.5876 104.677 96.4128 104.52 96.1914C104.363 95.97 104.285 95.73 104.285 95.4714H105.362C105.372 95.6742 105.446 95.8293 105.585 95.9369C105.723 96.0445 105.908 96.0983 106.142 96.0983C106.36 96.0983 106.524 96.0569 106.634 95.9742C106.745 95.8914 106.801 95.7828 106.801 95.6483Z" fill="white"/>
<path d="M39.6132 111.637L41.3803 118.725L41.6805 120.231L42.0457 118.791L44.147 111.637H44.8836L46.9602 118.791L47.3192 120.246L47.6379 118.725L49.3865 111.637H50.2252L47.7431 121.345H46.9602L44.766 113.751L44.5184 112.792L44.2801 113.751L42.0333 121.345H41.2472L38.7745 111.637H39.6132ZM52.7969 111.637V121.345H51.9799V111.637H52.7969ZM62.6321 111.637V121.345H61.812L56.2476 113.037V121.345H55.4244V111.637H56.2476L61.8213 119.951V111.637H62.6321ZM71.4677 111.637V112.335H68.1501V121.345H67.3331V112.335H64.0217V111.637H71.4677ZM78.3753 115.997V116.69H73.8476V120.653H79.053V121.345H73.0306V111.637H79.0221V112.335H73.8476V115.997H78.3753ZM86.7342 121.345L84.3915 117.304H81.5814V121.345H80.7551V111.637H83.9025C84.9341 111.637 85.7408 111.888 86.3226 112.391C86.9024 112.892 87.1923 113.594 87.1923 114.498C87.1923 115.119 87.0107 115.667 86.6476 116.143C86.2845 116.619 85.7965 116.948 85.1838 117.13L87.6039 121.258V121.345H86.7342ZM81.5814 112.335V116.603H84.0882C84.7752 116.603 85.3272 116.407 85.7439 116.016C86.1607 115.625 86.3691 115.119 86.3691 114.498C86.3691 113.814 86.1514 113.282 85.7161 112.903C85.2807 112.525 84.6711 112.335 83.8871 112.335H81.5814ZM98.482 120.671V121.345H92.4194V120.73L95.737 116.956C96.2858 116.321 96.6664 115.797 96.8789 115.383C97.0914 114.969 97.1977 114.567 97.1977 114.176C97.1977 113.563 97.0182 113.078 96.6592 112.72C96.3002 112.362 95.8061 112.183 95.1768 112.183C94.5248 112.183 93.9987 112.392 93.5985 112.81C93.1982 113.228 92.9981 113.77 92.9981 114.436H92.2058C92.2058 113.89 92.3286 113.393 92.5741 112.944C92.8196 112.495 93.1704 112.142 93.6263 111.885C94.0802 111.631 94.597 111.504 95.1768 111.504C96.064 111.504 96.7572 111.736 97.2565 112.202C97.7537 112.67 98.0023 113.306 98.0023 114.111C98.0023 114.564 97.862 115.059 97.5814 115.597C97.2988 116.135 96.8036 116.806 96.096 117.611L93.3942 120.671H98.482ZM105.801 115.516V117.298C105.801 118.667 105.552 119.706 105.052 120.414C104.551 121.123 103.812 121.478 102.836 121.478C101.879 121.478 101.146 121.131 100.636 120.435C100.126 119.74 99.8654 118.727 99.853 117.397V115.656C99.853 114.293 100.106 113.259 100.611 112.556C101.115 111.854 101.852 111.504 102.824 111.504C103.781 111.504 104.513 111.843 105.018 112.522C105.524 113.198 105.785 114.196 105.801 115.516ZM105.006 117.425V115.557C105.006 114.446 104.825 113.606 104.464 113.037C104.101 112.468 103.554 112.183 102.824 112.183C102.106 112.183 101.565 112.462 101.202 113.018C100.839 113.573 100.652 114.392 100.642 115.476V117.385C100.642 118.492 100.83 119.338 101.205 119.923C101.579 120.511 102.123 120.805 102.836 120.805C103.546 120.805 104.084 120.518 104.449 119.945C104.814 119.372 105 118.532 105.006 117.425ZM111.214 111.603V121.345H110.415V112.596L107.785 113.577V112.829L111.081 111.603H111.214ZM120.025 116.851C119.74 117.269 119.387 117.593 118.966 117.822C118.545 118.05 118.09 118.164 117.598 118.164C117.048 118.164 116.562 118.022 116.141 117.739C115.72 117.453 115.394 117.059 115.163 116.556C114.934 116.055 114.819 115.507 114.819 114.911C114.819 114.27 114.942 113.687 115.188 113.164C115.433 112.638 115.777 112.231 116.218 111.941C116.66 111.65 117.168 111.504 117.744 111.504C118.716 111.504 119.472 111.845 120.012 112.528C120.553 113.208 120.823 114.176 120.823 115.43V116.15C120.823 117.902 120.451 119.218 119.706 120.097C118.961 120.979 117.824 121.419 116.296 121.419H116.147L116.156 120.724H116.435C117.592 120.707 118.472 120.379 119.075 119.737C119.677 119.098 119.994 118.136 120.025 116.851ZM117.697 117.478C118.23 117.478 118.707 117.319 119.13 117C119.553 116.683 119.854 116.272 120.031 115.765V115.305C120.031 114.318 119.826 113.552 119.415 113.006C119.007 112.462 118.454 112.19 117.756 112.19C117.127 112.19 116.611 112.444 116.209 112.953C115.805 113.462 115.602 114.103 115.602 114.877C115.602 115.62 115.796 116.238 116.184 116.733C116.572 117.23 117.076 117.478 117.697 117.478Z" fill="#E86138"/>
</g>
<defs>
<clipPath id="clip0_0_291">
<rect width="160" height="162" fill="white"/>
</clipPath>
</defs>
</svg>
