<svg width="18" height="18" viewBox="0 0 18 18" fill="none" xmlns="http://www.w3.org/2000/svg">
<path d="M9 17C13.4183 17 17 13.4183 17 9C17 4.58172 13.4183 1 9 1C4.58172 1 1 4.58172 1 9C1 13.4183 4.58172 17 9 17Z" stroke="black" stroke-linecap="round" stroke-linejoin="round"/>
<path d="M1.12036 7.60889H5.35271C5.62682 7.60876 5.89827 7.66264 6.15155 7.76744C6.40484 7.87224 6.635 8.02591 6.82888 8.21967L7.60871 8.9995C7.98521 9.37589 8.20364 9.88194 8.21929 10.4141C8.23494 10.9462 8.04662 11.4642 7.69288 11.8621L6.74471 12.9285C6.40509 13.3105 6.21746 13.8039 6.2174 14.315V16.5028" stroke="black" stroke-linecap="round" stroke-linejoin="round"/>
<path d="M14.7468 3.43506H10.712C10.2969 3.43506 9.8988 3.59996 9.60526 3.8935C9.31173 4.18704 9.14682 4.58515 9.14682 5.00028C9.14682 5.4154 9.31173 5.81352 9.60526 6.10705C9.8988 6.40059 10.2969 6.56549 10.712 6.56549H11.0126C11.3565 6.56498 11.6953 6.6495 11.9987 6.81153C12.3021 6.97355 12.5608 7.20806 12.7517 7.49419L14.2946 9.81002C14.4855 10.0963 14.7441 10.3309 15.0475 10.4931C15.3509 10.6552 15.6897 10.7398 16.0338 10.7394H16.8136" stroke="black" stroke-linecap="round" stroke-linejoin="round"/>
</svg>
