<svg width="48" height="48" viewBox="0 0 48 48" fill="none" xmlns="http://www.w3.org/2000/svg">
<circle cx="24" cy="24" r="24" fill="#0D1B1E"/>
<path d="M18.331 23.2278V27.7203" stroke="white" stroke-width="1.5" stroke-linecap="round" stroke-linejoin="round"/>
<path fill-rule="evenodd" clip-rule="evenodd" d="M21.5256 26.8786V26.8786C21.5256 27.4989 22.0285 28.0018 22.6488 28.0018H27.3467C27.7221 28.002 28.0726 27.8142 28.2804 27.5016L29.4809 25.6982C29.6037 25.5131 29.6691 25.2959 29.669 25.0739V22.877V22.877C29.669 22.5791 29.5507 22.2934 29.3401 22.0828C29.1294 21.8722 28.8438 21.7538 28.5459 21.7538H26.4677V19.8437C26.4677 19.1925 25.9398 18.6646 25.2885 18.6646H24.6149C24.2198 18.6639 23.8535 18.8711 23.6505 19.2101L21.8458 22.2194C21.6364 22.5683 21.5257 22.9676 21.5256 23.3745V26.8786Z" stroke="white" stroke-width="1.5" stroke-linecap="round" stroke-linejoin="round"/>
<path fill-rule="evenodd" clip-rule="evenodd" d="M14.1712 30.8806L13.3289 34.6712L17.1195 33.8289C22.2258 37.4063 29.2195 36.487 33.2278 31.7114C37.2361 26.9358 36.9288 19.8885 32.5202 15.4799C28.1115 11.0712 21.0643 10.764 16.2887 14.7723C11.5131 18.7805 10.5937 25.7743 14.1712 30.8806Z" stroke="white" stroke-width="1.5" stroke-linecap="round" stroke-linejoin="round"/>
</svg>
