<svg width="48" height="48" viewBox="0 0 48 48" fill="none" xmlns="http://www.w3.org/2000/svg">
<circle cx="24" cy="24" r="24" fill="#0D1B1E"/>
<path d="M24 36.0051C17.3698 36.0051 11.995 30.6303 11.995 24.0001C11.995 17.3699 17.3698 11.9951 24 11.9951C30.6302 11.9951 36.005 17.3699 36.005 24.0001" stroke="white" stroke-width="1.5" stroke-linecap="round" stroke-linejoin="round"/>
<path d="M12.6793 19.9985H35.1794" stroke="white" stroke-width="1.5" stroke-linecap="round" stroke-linejoin="round"/>
<path d="M12.6806 28.0017H24" stroke="white" stroke-width="1.5" stroke-linecap="round" stroke-linejoin="round"/>
<path d="M29.3356 24C29.3456 20.2735 28.3468 16.6137 26.445 13.4089C25.9418 12.5344 25.0096 11.9954 24.0007 11.9954C22.9917 11.9954 22.0595 12.5344 21.5563 13.4089C17.7014 19.944 17.7014 28.0574 21.5563 34.5924C22.0617 35.4651 22.9928 36.0036 24.0013 36.0064" stroke="white" stroke-width="1.5" stroke-linecap="round" stroke-linejoin="round"/>
<ellipse cx="32.0033" cy="32.0035" rx="5.33555" ry="5.33556" stroke="white" stroke-width="1.5" stroke-linecap="round" stroke-linejoin="round"/>
<path d="M33.6627 31.175L31.5872 33.2506L30.3427 32.0047" stroke="white" stroke-width="1.5" stroke-linecap="round" stroke-linejoin="round"/>
</svg>
