<svg width="48" height="48" viewBox="0 0 48 48" fill="none" xmlns="http://www.w3.org/2000/svg">
<circle cx="24" cy="24" r="24" fill="#0D1B1E"/>
<path d="M32.6667 32.7522V35.3319C32.6667 35.6016 32.5043 35.8447 32.2551 35.9478C32.006 36.051 31.7193 35.994 31.5286 35.8033L28.4775 32.7522" stroke="white" stroke-width="1.5" stroke-linecap="round" stroke-linejoin="round"/>
<path d="M31.9999 20.6665H32.6713C34.5097 20.6665 35.9999 22.1568 35.9999 23.9951V29.4235C35.9999 31.2618 34.5097 32.7521 32.6713 32.7521V32.7521" stroke="white" stroke-width="1.5" stroke-linecap="round" stroke-linejoin="round"/>
<path d="M28.4822 32.7523H24.6619C22.8236 32.7523 21.3333 31.262 21.3333 29.4237V28" stroke="white" stroke-width="1.5" stroke-linecap="round" stroke-linejoin="round"/>
<path fill-rule="evenodd" clip-rule="evenodd" d="M19.608 24L16.4714 27.1368C16.2807 27.3274 15.994 27.3845 15.7448 27.2813C15.4957 27.1781 15.3333 26.935 15.3333 26.6653V24H15.3286C14.4458 24 13.5991 23.6493 12.9749 23.0251C12.3507 22.4008 12 21.5542 12 20.6714V15.3286C12 13.4903 13.4902 12 15.3286 12H24.6714C26.5097 12 28 13.4903 28 15.3286V20.6714C28 21.5542 27.6493 22.4008 27.025 23.0251C26.4008 23.6493 25.5542 24 24.6714 24H19.608Z" stroke="white" stroke-width="1.5" stroke-linecap="round" stroke-linejoin="round"/>
</svg>
