<svg width="48" height="48" viewBox="0 0 48 48" fill="none" xmlns="http://www.w3.org/2000/svg">
<circle cx="24" cy="24" r="24" fill="#0D1B1E"/>
<path d="M19.8936 31.3343C20.935 32.3757 20.935 34.0641 19.8936 35.1055C18.8522 36.1469 17.1638 36.1469 16.1224 35.1055C15.081 34.0641 15.081 32.3757 16.1224 31.3343C17.1638 30.2929 18.8522 30.2929 19.8936 31.3343" stroke="white" stroke-width="1.5" stroke-linecap="round" stroke-linejoin="round"/>
<path d="M31.8776 31.3343C32.919 32.3757 32.919 34.0641 31.8776 35.1055C30.8362 36.1469 29.1478 36.1469 28.1064 35.1055C27.065 34.0641 27.065 32.3757 28.1064 31.3343C29.1478 30.2929 30.8362 30.2929 31.8776 31.3343" stroke="white" stroke-width="1.5" stroke-linecap="round" stroke-linejoin="round"/>
<path d="M16.1909 19.9383C17.2323 20.9797 17.2323 22.6681 16.1909 23.7095C15.1495 24.7509 13.4611 24.7509 12.4197 23.7095C11.3783 22.6681 11.3783 20.9797 12.4197 19.9383C13.4611 18.8969 15.1495 18.8969 16.1909 19.9383" stroke="white" stroke-width="1.5" stroke-linecap="round" stroke-linejoin="round"/>
<path d="M25.8856 12.8943C26.927 13.9357 26.927 15.6242 25.8856 16.6656C24.8442 17.707 23.1558 17.707 22.1144 16.6656C21.073 15.6242 21.073 13.9357 22.1144 12.8943C23.1558 11.8529 24.8442 11.8529 25.8856 12.8943" stroke="white" stroke-width="1.5" stroke-linecap="round" stroke-linejoin="round"/>
<path d="M35.5803 19.9383C36.6217 20.9797 36.6217 22.6681 35.5803 23.7095C34.5389 24.7509 32.8504 24.7509 31.809 23.7095C30.7676 22.6681 30.7676 20.9797 31.809 19.9383C32.8504 18.8969 34.5389 18.8969 35.5803 19.9383" stroke="white" stroke-width="1.5" stroke-linecap="round" stroke-linejoin="round"/>
<path d="M25.8856 22.7063C26.927 23.7477 26.927 25.4362 25.8856 26.4776C24.8442 27.519 23.1558 27.519 22.1144 26.4776C21.073 25.4362 21.073 23.7477 22.1144 22.7063C23.1558 21.6649 24.8442 21.6649 25.8856 22.7063" stroke="white" stroke-width="1.5" stroke-linecap="round" stroke-linejoin="round"/>
<path d="M25.52 26.7734L28.4667 31.0401" stroke="white" stroke-width="1.5" stroke-linecap="round" stroke-linejoin="round"/>
<path d="M22.48 26.7734L19.5333 31.0268" stroke="white" stroke-width="1.5" stroke-linecap="round" stroke-linejoin="round"/>
<path d="M21.4533 23.8667L16.8533 22.5467" stroke="white" stroke-width="1.5" stroke-linecap="round" stroke-linejoin="round"/>
<path d="M24 21.9198V17.4531" stroke="white" stroke-width="1.5" stroke-linecap="round" stroke-linejoin="round"/>
<path d="M26.5467 23.8667L31.1467 22.5467" stroke="white" stroke-width="1.5" stroke-linecap="round" stroke-linejoin="round"/>
</svg>
