<svg width="48" height="48" viewBox="0 0 48 48" fill="none" xmlns="http://www.w3.org/2000/svg">
<circle cx="24" cy="24" r="24" fill="#0D1B1E"/>
<path fill-rule="evenodd" clip-rule="evenodd" d="M27.3347 35.3381V34.7966C27.3391 33.2558 28.5871 32.0078 30.1279 32.0034H34.5457C36.0865 32.0078 37.3345 33.2558 37.3389 34.7966V35.3381C37.3389 35.7065 37.0403 36.0051 36.6719 36.0051H28.0017C27.6333 36.0051 27.3347 35.7065 27.3347 35.3381Z" stroke="white" stroke-width="1.5" stroke-linecap="round" stroke-linejoin="round"/>
<path fill-rule="evenodd" clip-rule="evenodd" d="M29.7691 26.7211C29.4457 25.5623 29.9379 24.3304 30.9709 23.7136C32.0038 23.0967 33.3218 23.2476 34.1886 24.0818C35.0554 24.9161 35.2566 26.2273 34.6798 27.2831C34.103 28.3389 32.8909 28.8779 31.7205 28.5992C30.777 28.3745 30.0298 27.6553 29.7691 26.7211Z" stroke="white" stroke-width="1.5" stroke-linecap="round" stroke-linejoin="round"/>
<path fill-rule="evenodd" clip-rule="evenodd" d="M10.6611 32.6704V32.1289C10.6655 30.5881 11.9135 29.3401 13.4543 29.3357H17.8721C19.4129 29.3401 20.6609 30.5881 20.6653 32.1289V32.6704C20.6653 33.0388 20.3667 33.3374 19.9984 33.3374H11.3281C10.9597 33.3374 10.6611 33.0388 10.6611 32.6704Z" stroke="white" stroke-width="1.5" stroke-linecap="round" stroke-linejoin="round"/>
<path fill-rule="evenodd" clip-rule="evenodd" d="M13.0955 24.0533C12.7721 22.8945 13.2644 21.6627 14.2973 21.0458C15.3302 20.429 16.6482 20.5798 17.515 21.4141C18.3819 22.2483 18.5831 23.5596 18.0062 24.6154C17.4294 25.6711 16.2173 26.2102 15.047 25.9315C14.1034 25.7067 13.3562 24.9876 13.0955 24.0533Z" stroke="white" stroke-width="1.5" stroke-linecap="round" stroke-linejoin="round"/>
<ellipse cx="25.3339" cy="15.9967" rx="5.33556" ry="5.33556" stroke="white" stroke-width="1.5" stroke-linecap="round" stroke-linejoin="round"/>
<path d="M27.128 14.9404L24.887 17.18L23.5398 15.8368" stroke="white" stroke-width="1.5" stroke-linecap="round" stroke-linejoin="round"/>
</svg>
