<svg width="48" height="48" viewBox="0 0 48 48" fill="none" xmlns="http://www.w3.org/2000/svg">
<circle cx="24" cy="24" r="24" fill="#19B885"/>
<path fill-rule="evenodd" clip-rule="evenodd" d="M33.4532 16.4884L29.7456 12.7808C28.7622 11.7972 27.4283 11.2446 26.0374 11.2446C24.6465 11.2446 23.3126 11.7972 22.3291 12.7808L20.6667 14.4432C20.479 14.6305 20.4228 14.9125 20.5243 15.1574C20.6258 15.4023 20.865 15.5618 21.1301 15.5615H22.1704C22.8657 15.5617 23.5324 15.838 24.0242 16.3296L25.1098 17.4152V19.2704L27.8919 22.0511L29.3233 21.6259L30.6725 22.9737V24.8275L31.469 25.624C32.0534 26.2081 33.0006 26.2081 33.585 25.624L37.0303 22.1772C37.3115 21.8969 37.4696 21.5163 37.4696 21.1192C37.4696 20.7222 37.3115 20.3415 37.0303 20.0613L36.2352 19.2662H34.3801L33.0322 17.9169L33.4532 16.4884Z" stroke="white" stroke-width="2" stroke-linecap="round" stroke-linejoin="round"/>
<path fill-rule="evenodd" clip-rule="evenodd" d="M11.5168 35.7702V35.7702C12.1823 36.4354 13.0959 36.7916 14.036 36.7523C14.9761 36.7129 15.8568 36.2817 16.4645 35.5633L27.8918 22.0512L25.1097 19.2705L11.6968 30.8438C10.9889 31.455 10.5673 32.3332 10.5331 33.2678C10.499 34.2024 10.8554 35.109 11.5168 35.7702Z" stroke="white" stroke-width="2" stroke-linecap="round" stroke-linejoin="round"/>
</svg>
