<svg width="48" height="48" viewBox="0 0 48 48" fill="none" xmlns="http://www.w3.org/2000/svg">
<circle cx="24" cy="24" r="24" fill="#19B885"/>
<path d="M14.5271 32.6621C13.9064 33.583 13.9328 34.7948 14.593 35.6878C15.2531 36.5807 16.404 36.9613 17.4663 36.6379C18.5287 36.3146 19.2724 35.3573 19.3231 34.248" stroke="white" stroke-width="2" stroke-linecap="round" stroke-linejoin="round"/>
<path fill-rule="evenodd" clip-rule="evenodd" d="M22.1349 35.1778L12.2141 31.8969C11.6369 31.7083 11.2459 31.1705 11.2447 30.5632V28.6882C11.2459 28.081 11.6369 27.5431 12.2141 27.3546L22.1349 24.0736C22.565 23.9304 23.0377 24.0015 23.4066 24.265C23.7755 24.5285 23.9961 24.9525 24 25.4058V33.8456C23.9938 34.6239 23.3611 35.2515 22.5828 35.2515C22.4304 35.2521 22.2791 35.2271 22.1349 35.1778Z" stroke="white" stroke-width="2" stroke-linecap="round" stroke-linejoin="round"/>
<path d="M11.2447 22.5827V18.3309C11.2447 14.4173 14.4174 11.2446 18.331 11.2446H29.6691C33.5827 11.2446 36.7553 14.4173 36.7553 18.3309V31.0862C36.7553 34.2171 34.2172 36.7553 31.0863 36.7553H28.2518" stroke="white" stroke-width="2" stroke-linecap="round" stroke-linejoin="round"/>
</svg>
