<svg width="197" height="35" viewBox="0 0 197 35" fill="none" xmlns="http://www.w3.org/2000/svg">
<g clip-path="url(#clip0_0_107)">
<path d="M45.6059 26.2692C44.9431 26.2692 44.3095 26.1792 43.6758 25.9692C43.0422 25.7592 42.4659 25.4592 41.9474 25.0692C41.4289 24.6792 40.9395 24.1693 40.5362 23.5693C40.1329 22.9693 39.8161 22.2793 39.6144 21.4993L42.1204 20.4494C42.2355 20.8994 42.3798 21.3193 42.5815 21.7093C42.7827 22.0993 43.0422 22.4593 43.359 22.7293C43.6471 23.0293 43.9926 23.2393 44.3673 23.4193C44.7415 23.5993 45.1735 23.6593 45.6346 23.6593C46.0088 23.6593 46.3834 23.5993 46.758 23.5093C47.1035 23.4193 47.4204 23.2393 47.6794 23.0293C47.9389 22.8193 48.1405 22.5493 48.3135 22.2493C48.486 21.9493 48.5438 21.5893 48.5438 21.1994C48.5438 20.8394 48.486 20.5093 48.3709 20.2394C48.2557 19.9394 48.054 19.6994 47.795 19.4294C47.5355 19.1894 47.19 18.9494 46.758 18.7394C46.3256 18.5294 45.8075 18.2895 45.2026 18.0795L44.1656 17.6895C43.7045 17.5395 43.2725 17.3295 42.7827 17.0595C42.322 16.7895 41.89 16.4595 41.5154 16.0995C41.1412 15.7095 40.8244 15.2895 40.5936 14.7496C40.3633 14.2396 40.2481 13.6396 40.2481 12.9496C40.2481 12.3196 40.3633 11.6897 40.6227 11.1197C40.8818 10.5497 41.2277 10.0397 41.6884 9.61972C42.1491 9.19972 42.6966 8.83972 43.3303 8.59974C43.964 8.35976 44.6841 8.23975 45.4616 8.23975C46.2682 8.23975 46.9597 8.35976 47.5933 8.59974C48.1979 8.83972 48.7164 9.13971 49.1197 9.46972C49.523 9.82972 49.8685 10.2197 50.128 10.6397C50.387 11.0597 50.56 11.4497 50.7042 11.8397L48.3422 12.8896C48.2557 12.6496 48.1405 12.4096 47.9966 12.1396C47.8524 11.8997 47.6507 11.6596 47.4204 11.4797C47.19 11.2997 46.9019 11.1197 46.5851 10.9997C46.2682 10.8797 45.8936 10.8197 45.4903 10.8197C45.1161 10.8197 44.7706 10.8797 44.4537 10.9697C44.1365 11.0897 43.8488 11.2097 43.6184 11.4197C43.3877 11.5997 43.186 11.8397 43.0422 12.0796C42.8983 12.3496 42.8405 12.6196 42.8405 12.9196C42.8405 13.5196 43.0709 14.0296 43.5606 14.3896C44.0504 14.7795 44.7706 15.1395 45.692 15.4695L46.7289 15.8595C47.3626 16.0995 47.9676 16.3395 48.5151 16.6695C49.0623 16.9695 49.523 17.3295 49.9263 17.7795C50.3296 18.1994 50.6464 18.7094 50.8768 19.2494C51.1071 19.8194 51.2223 20.4494 51.2223 21.1994C51.2223 22.0993 51.0497 22.8793 50.7042 23.5093C50.3583 24.1392 49.9263 24.6792 49.3791 25.0992C48.8319 25.5192 48.227 25.8192 47.5642 26.0292C46.9019 26.1792 46.2395 26.2692 45.6059 26.2692Z" fill="#0D1B1E"/>
<path d="M60.9587 24.2907H60.8144C60.4689 24.8607 59.9791 25.3107 59.3746 25.7007C58.7409 26.0907 58.0495 26.2707 57.2428 26.2707C55.8026 26.2707 54.7369 25.8207 54.0168 24.9207C53.2966 24.0207 52.9511 22.8508 52.9511 21.3508V14.061H55.5148V21.0208C55.5148 22.0408 55.7452 22.7608 56.2059 23.1808C56.667 23.6008 57.2715 23.8108 57.9917 23.8108C58.4241 23.8108 58.827 23.7207 59.1729 23.5108C59.5184 23.3307 59.8066 23.0608 60.0656 22.7308C60.325 22.4008 60.4976 22.0108 60.6132 21.5908C60.7283 21.1708 60.7857 20.7208 60.7857 20.2409V14.061H63.3495V25.8807H60.93V24.2907H60.9587Z" fill="#0D1B1E"/>
<path d="M65.9993 14.0606H68.4191V15.8306H68.563C68.7069 15.5306 68.8798 15.2306 69.1392 14.9606C69.3696 14.6906 69.6577 14.4806 69.9455 14.2706C70.2336 14.0906 70.5504 13.9406 70.896 13.8206C71.2419 13.7006 71.5587 13.6406 71.8468 13.6406C72.2211 13.6406 72.5379 13.6706 72.7973 13.7606C73.0564 13.8206 73.2867 13.9406 73.5174 14.0606L72.7682 16.4906C72.5957 16.4005 72.4227 16.3406 72.1924 16.3105C71.9907 16.2806 71.7313 16.2505 71.4435 16.2505C71.0402 16.2505 70.6369 16.3406 70.2914 16.5205C69.9455 16.7005 69.6286 16.9405 69.3696 17.2405C69.1102 17.5405 68.9085 17.9005 68.7646 18.3205C68.6208 18.7405 68.5343 19.1905 68.5343 19.6404V25.8202H65.9706V14.0606H65.9993Z" fill="#0D1B1E"/>
<path d="M73.9203 14.061H76.8296L79.8831 22.4008H79.9983L83.1379 14.061H85.9606L81.2078 25.8807H78.6445L73.9203 14.061Z" fill="#0D1B1E"/>
<path d="M97.5107 23.0606C97.0213 23.9906 96.3586 24.7405 95.4659 25.3405C94.5728 25.9405 93.5071 26.2705 92.2111 26.2705C91.3758 26.2705 90.5692 26.1205 89.8491 25.7905C89.1289 25.4905 88.4953 25.0405 87.9768 24.4706C87.4583 23.9006 87.055 23.2406 86.7382 22.4906C86.45 21.7407 86.3062 20.9007 86.3062 19.9707C86.3062 19.1307 86.45 18.3208 86.7095 17.5408C86.9976 16.7908 87.3718 16.1008 87.8903 15.5308C88.3801 14.9609 88.985 14.5109 89.7052 14.1809C90.4249 13.8509 91.2028 13.6709 92.0669 13.6709C92.9599 13.6709 93.7375 13.8209 94.4289 14.1209C95.1204 14.4209 95.6962 14.8409 96.186 15.4109C96.6754 15.9508 97.0213 16.6108 97.2804 17.3908C97.5398 18.1708 97.655 19.0107 97.655 19.9107V20.1207C97.6263 20.2107 97.6263 20.2707 97.6263 20.3307C97.5972 20.3907 97.5972 20.4507 97.5972 20.5107H88.8699C88.9273 21.0807 89.0424 21.5607 89.2728 21.9806C89.4744 22.4006 89.7626 22.7306 90.0794 23.0306C90.3962 23.3006 90.7418 23.5106 91.1451 23.6306C91.5197 23.7506 91.923 23.8106 92.2685 23.8106C93.0173 23.8106 93.6223 23.6306 94.1121 23.2406C94.6019 22.8806 94.9761 22.4006 95.2929 21.8607L97.5107 23.0606ZM95.1204 18.5007C95.0913 18.2608 95.0048 17.9908 94.8896 17.6908C94.7744 17.3908 94.6019 17.1208 94.3711 16.8808C94.1408 16.6408 93.824 16.4308 93.4493 16.2508C93.0751 16.0708 92.614 15.9808 92.0669 15.9808C91.318 15.9808 90.6844 16.2208 90.1659 16.6708C89.6474 17.1208 89.2728 17.7508 89.1002 18.5007H95.1204Z" fill="#0D1B1E"/>
<path d="M102.926 25.1907L98.2021 14.061H101.082L104.193 21.8908H104.308L107.362 14.061H110.185L103.099 31.1005H100.362L102.926 25.1907Z" fill="#0D1B1E"/>
<path d="M116.838 26.2692C116.176 26.2692 115.542 26.1792 114.908 25.9692C114.275 25.7592 113.699 25.4592 113.18 25.0692C112.662 24.6792 112.172 24.1693 111.769 23.5693C111.365 22.9693 111.049 22.2793 110.847 21.4993L113.353 20.4494C113.468 20.8994 113.612 21.3193 113.814 21.7093C114.016 22.0993 114.275 22.4593 114.592 22.7293C114.88 23.0293 115.225 23.2393 115.6 23.4193C115.974 23.5993 116.406 23.6593 116.867 23.6593C117.242 23.6593 117.616 23.5993 117.991 23.5093C118.336 23.4193 118.653 23.2393 118.912 23.0293C119.171 22.8193 119.373 22.5493 119.546 22.2493C119.719 21.9493 119.776 21.5893 119.776 21.1994C119.776 20.8394 119.719 20.5093 119.603 20.2394C119.488 19.9394 119.287 19.6994 119.028 19.4294C118.768 19.1894 118.423 18.9494 117.991 18.7394C117.559 18.5294 117.04 18.2895 116.435 18.0795L115.398 17.6895C114.937 17.5395 114.505 17.3295 114.016 17.0595C113.555 16.7895 113.123 16.4595 112.748 16.0995C112.374 15.7095 112.057 15.2895 111.827 14.7496C111.596 14.2396 111.481 13.6396 111.481 12.9496C111.481 12.3196 111.596 11.6897 111.855 11.1197C112.115 10.5497 112.46 10.0397 112.921 9.61972C113.382 9.19972 113.929 8.83972 114.563 8.59974C115.196 8.35976 115.917 8.23975 116.695 8.23975C117.501 8.23975 118.192 8.35976 118.826 8.59974C119.431 8.83972 119.949 9.13971 120.353 9.46972C120.756 9.82972 121.101 10.2197 121.361 10.6397C121.62 11.0597 121.793 11.4497 121.937 11.8397L119.575 12.8896C119.488 12.6496 119.373 12.4096 119.229 12.1396C119.085 11.8997 118.884 11.6596 118.653 11.4797C118.423 11.2997 118.134 11.1197 117.818 10.9997C117.501 10.8797 117.127 10.8197 116.723 10.8197C116.349 10.8197 116.003 10.8797 115.686 10.9697C115.369 11.0897 115.081 11.2097 114.851 11.4197C114.621 11.5997 114.419 11.8397 114.275 12.0796C114.131 12.3496 114.073 12.6196 114.073 12.9196C114.073 13.5196 114.304 14.0296 114.793 14.3896C115.283 14.7795 116.003 15.1395 116.925 15.4695L117.962 15.8595C118.624 16.0995 119.2 16.3395 119.748 16.6695C120.295 16.9695 120.756 17.3295 121.159 17.7795C121.562 18.1994 121.879 18.7094 122.109 19.2494C122.34 19.8194 122.455 20.4494 122.455 21.1994C122.455 22.0993 122.282 22.8793 121.937 23.5093C121.591 24.1392 121.159 24.6792 120.612 25.0992C120.065 25.5192 119.46 25.8192 118.797 26.0292C118.134 26.1792 117.472 26.2692 116.838 26.2692Z" fill="#0D1B1E"/>
<path d="M124.558 14.0609H126.977V15.5908H127.122C127.438 15.0809 127.899 14.6309 128.533 14.2409C129.166 13.8509 129.916 13.6709 130.808 13.6709C131.529 13.6709 132.22 13.8209 132.882 14.1509C133.545 14.4509 134.121 14.9009 134.611 15.4708C135.1 16.0408 135.503 16.7008 135.792 17.4508C136.08 18.2008 136.224 19.0408 136.224 19.9707C136.224 20.9007 136.08 21.7407 135.792 22.4906C135.503 23.2406 135.1 23.9306 134.611 24.4706C134.121 25.0405 133.545 25.4605 132.882 25.7905C132.22 26.0905 131.529 26.2705 130.808 26.2705C129.916 26.2705 129.166 26.0905 128.533 25.7005C127.899 25.3105 127.438 24.8905 127.122 24.3506H126.977L127.122 26.0005V31.1004H124.558V14.0609ZM130.319 23.7806C130.751 23.7806 131.183 23.6906 131.586 23.5106C131.989 23.3306 132.364 23.0906 132.652 22.7606C132.94 22.4306 133.199 22.0406 133.372 21.5607C133.545 21.0807 133.66 20.5707 133.66 19.9707C133.66 19.3707 133.574 18.8308 133.372 18.3808C133.199 17.9008 132.94 17.5108 132.652 17.1808C132.364 16.8508 131.989 16.6108 131.586 16.4308C131.183 16.2508 130.751 16.1608 130.319 16.1608C129.858 16.1608 129.455 16.2508 129.051 16.4308C128.648 16.6108 128.302 16.8508 127.986 17.1808C127.698 17.5108 127.438 17.9008 127.266 18.3808C127.093 18.8607 126.977 19.4007 126.977 19.9707C126.977 20.5707 127.064 21.1107 127.266 21.5607C127.467 22.0107 127.698 22.4306 127.986 22.7606C128.274 23.0906 128.648 23.3306 129.051 23.5106C129.455 23.6906 129.858 23.7806 130.319 23.7806Z" fill="#0D1B1E"/>
<path d="M145.354 24.4408H145.21C144.865 24.9208 144.433 25.3408 143.885 25.7008C143.338 26.0907 142.647 26.2708 141.811 26.2708C141.207 26.2708 140.659 26.1808 140.112 25.9708C139.593 25.7608 139.133 25.4908 138.758 25.1308C138.384 24.7708 138.067 24.3508 137.836 23.8408C137.606 23.3609 137.491 22.8209 137.491 22.2209C137.491 21.5909 137.606 21.0209 137.836 20.5409C138.067 20.031 138.413 19.611 138.845 19.281C139.277 18.951 139.766 18.681 140.371 18.501C140.947 18.321 141.581 18.231 142.272 18.231C143.021 18.231 143.655 18.321 144.173 18.471C144.692 18.621 145.066 18.771 145.325 18.891V18.441C145.325 18.081 145.239 17.751 145.095 17.451C144.951 17.151 144.75 16.881 144.49 16.6711C144.231 16.4611 143.943 16.2811 143.626 16.1611C143.309 16.0411 142.963 15.9811 142.618 15.9811C142.042 15.9811 141.524 16.1011 141.091 16.3411C140.63 16.581 140.227 16.941 139.882 17.451L137.836 16.0411C138.384 15.2611 139.046 14.6911 139.853 14.3011C140.659 13.9111 141.552 13.7012 142.589 13.7012C144.26 13.7012 145.585 14.1211 146.478 14.9911C147.399 15.8611 147.86 17.091 147.86 18.711V25.9108H145.325V24.4408H145.354ZM145.354 20.9609C145.009 20.7509 144.634 20.5709 144.231 20.4509C143.828 20.331 143.338 20.2709 142.791 20.2709C141.984 20.2709 141.351 20.4509 140.861 20.8409C140.371 21.2309 140.141 21.6809 140.141 22.2509C140.141 22.5509 140.198 22.7909 140.314 23.0009C140.429 23.2109 140.602 23.4208 140.774 23.5708C140.947 23.7208 141.178 23.8408 141.437 23.9308C141.696 24.0208 141.956 24.0508 142.215 24.0508C142.618 24.0508 143.021 23.9608 143.396 23.8108C143.77 23.6308 144.116 23.4208 144.375 23.1208C144.663 22.8509 144.865 22.5209 145.037 22.1309C145.268 21.7709 145.354 21.3809 145.354 20.9609Z" fill="#0D1B1E"/>
<path d="M150.28 14.0606H152.699V15.8306H152.843C152.987 15.5306 153.16 15.2306 153.42 14.9606C153.65 14.6906 153.938 14.4806 154.226 14.2706C154.514 14.0906 154.831 13.9406 155.177 13.8206C155.522 13.7006 155.839 13.6406 156.127 13.6406C156.501 13.6406 156.818 13.6706 157.078 13.7606C157.337 13.8206 157.567 13.9406 157.798 14.0606L157.049 16.4906C156.876 16.4005 156.703 16.3406 156.473 16.3105C156.271 16.2806 156.012 16.2505 155.724 16.2505C155.321 16.2505 154.917 16.3406 154.572 16.5205C154.226 16.7005 153.909 16.9405 153.65 17.2405C153.39 17.5405 153.189 17.9005 153.045 18.3205C152.901 18.7405 152.815 19.1905 152.815 19.6404V25.8202H150.251V14.0606H150.28Z" fill="#0D1B1E"/>
<path d="M159.209 14.0606H161.628V15.8306H161.773C161.917 15.5306 162.09 15.2306 162.349 14.9606C162.579 14.6906 162.867 14.4806 163.155 14.2706C163.443 14.0906 163.76 13.9406 164.106 13.8206C164.451 13.7006 164.768 13.6406 165.056 13.6406C165.431 13.6406 165.748 13.6706 166.007 13.7606C166.266 13.8206 166.496 13.9406 166.727 14.0606L165.978 16.4906C165.805 16.4005 165.632 16.3406 165.402 16.3105C165.2 16.2806 164.941 16.2505 164.653 16.2505C164.25 16.2505 163.846 16.3406 163.501 16.5205C163.155 16.7005 162.838 16.9405 162.579 17.2405C162.32 17.5405 162.118 17.9005 161.974 18.3205C161.83 18.7405 161.744 19.1905 161.744 19.6404V25.8202H159.18V14.0606H159.209Z" fill="#0D1B1E"/>
<path d="M172.69 13.6709C173.554 13.6709 174.361 13.8209 175.081 14.1509C175.801 14.4509 176.434 14.9009 176.953 15.4708C177.471 16.0408 177.874 16.7008 178.191 17.4808C178.479 18.2608 178.624 19.1007 178.624 20.0007C178.624 20.9007 178.479 21.7407 178.191 22.5206C177.903 23.3006 177.5 23.9606 176.953 24.5306C176.434 25.1005 175.801 25.5205 175.081 25.8505C174.361 26.1505 173.554 26.3305 172.69 26.3305C171.825 26.3305 171.019 26.1805 170.299 25.8505C169.579 25.5505 168.945 25.1005 168.427 24.5306C167.908 23.9606 167.505 23.3006 167.188 22.5206C166.9 21.7407 166.756 20.9007 166.756 20.0007C166.756 19.1007 166.9 18.2608 167.188 17.4808C167.476 16.7008 167.88 16.0408 168.427 15.4708C168.945 14.9009 169.579 14.4809 170.299 14.1509C171.048 13.8209 171.825 13.6709 172.69 13.6709ZM172.69 23.7806C173.122 23.7806 173.525 23.6906 173.929 23.5106C174.331 23.3306 174.677 23.0906 174.994 22.7606C175.311 22.4306 175.57 22.0406 175.743 21.5607C175.916 21.0807 176.031 20.5407 176.031 19.9707C176.031 19.3707 175.945 18.8308 175.743 18.3808C175.57 17.9008 175.311 17.5108 174.994 17.1808C174.677 16.8508 174.331 16.6108 173.929 16.4308C173.525 16.2508 173.122 16.1608 172.69 16.1608C172.258 16.1608 171.855 16.2508 171.451 16.4308C171.048 16.6108 170.702 16.8508 170.386 17.1808C170.069 17.5108 169.809 17.9008 169.636 18.3808C169.464 18.8607 169.349 19.4007 169.349 19.9707C169.349 20.5707 169.435 21.1107 169.636 21.5607C169.809 22.0406 170.069 22.4306 170.386 22.7606C170.702 23.0906 171.048 23.3306 171.451 23.5106C171.855 23.6906 172.258 23.7806 172.69 23.7806Z" fill="#0D1B1E"/>
<path d="M179.141 14.061H181.935L184.124 22.2508H184.24L186.775 14.061H189.453L191.959 22.2508H192.046L194.235 14.061H197L193.342 25.8807H190.634L188.071 17.6009H187.984L185.478 25.8807H182.771L179.141 14.061Z" fill="#0D1B1E"/>
<path fill-rule="evenodd" clip-rule="evenodd" d="M1.07481 10.8212L3.84 11.3912C1.21883 10.5512 -0.423 7.73132 0.0954733 4.8514L0.181885 4.46143L14.6991 7.49134C18.6165 8.3313 21.5545 11.9012 21.5545 16.221C21.5545 21.1109 17.7524 25.1008 13.0285 25.1008C8.44866 25.1008 4.70411 21.3509 4.5025 16.611C2.08295 16.1011 0.527533 13.6711 1.0172 11.1512L1.07481 10.8212ZM15.2466 13.6702C15.5635 13.3403 16.0819 13.3403 16.3988 13.6702C16.7156 14.0002 16.7156 14.5402 16.3412 14.8102L12.5102 18.7401C12.3374 18.8901 12.1358 18.9801 11.9341 18.9801C11.7325 18.9801 11.5309 18.8901 11.3581 18.7401L9.54341 16.8801C9.22654 16.5501 9.22654 16.0102 9.54341 15.6802C9.86024 15.3502 10.3787 15.3502 10.6955 15.6802L11.9629 16.9701L15.2466 13.6702Z" fill="#0D1B1E"/>
<path d="M25.7024 7.85107C27.2002 10.281 28.0355 13.1609 28.0355 16.2508C28.0355 21.9206 25.1263 26.8705 20.8057 29.6304C20.7193 29.6904 20.6041 29.7504 20.4889 29.8104C20.0856 30.0504 19.6535 30.2903 19.2215 30.5003C18.559 30.8304 17.8389 31.1003 17.1188 31.3103C17.0036 31.3403 16.8884 31.3703 16.7732 31.4003C16.5427 31.4603 16.2835 31.5203 16.0531 31.5803C15.9954 31.5803 15.9378 31.6103 15.8802 31.6103C15.7074 31.6403 15.5058 31.6703 15.3329 31.7003C14.584 31.8203 13.8351 31.8803 13.0574 31.8803C12.9134 31.8803 12.7982 31.8803 12.6541 31.8803C12.4237 31.8803 12.2221 31.8803 11.9917 31.8503C11.9052 31.8503 11.8188 31.8503 11.7324 31.8203C11.6172 31.8203 11.502 31.7903 11.4156 31.7903C11.0411 31.7603 10.6667 31.7003 10.2922 31.6103C10.2058 31.6103 10.1194 31.5803 10.033 31.5503C9.88897 31.5203 9.74495 31.4903 9.60092 31.4603C9.4857 31.4303 9.37049 31.4003 9.28409 31.3703C9.16888 31.3403 9.08244 31.3103 8.96722 31.2803C8.65039 31.1903 8.33357 31.0703 8.0167 30.9503L4.12816 35.0002C3.12001 34.4902 2.16947 33.8903 1.24774 33.2003L4.93466 29.3904L7.32541 26.9005V26.9305C9.02485 27.9204 10.9835 28.4904 13.0574 28.4904C19.5671 28.4904 24.8671 22.9706 24.8671 16.1908V15.5608C24.8671 14.2109 24.4926 12.8609 24.147 11.901C23.7725 10.911 23.3981 10.281 23.3981 10.281C23.3981 10.281 24.8671 8.75104 25.7024 7.85107Z" fill="#0D1B1E"/>
<path d="M28.3812 5.09087L25.7313 7.85077C25.5584 5.33085 23.5421 3.35093 21.065 3.35093C19.9417 3.35093 18.9047 3.77091 18.0982 4.46091L18.0694 4.49089C17.983 4.58088 17.8678 4.67087 17.7813 4.76089C16.7156 4.28089 15.5634 3.95092 14.3536 3.83091C14.9873 2.78094 15.8515 1.88097 16.8596 1.22099C16.9172 1.191 16.946 1.191 16.9748 1.161C18.0117 0.501017 19.2216 0.111029 20.5177 0.0210315C23.3405 -0.188962 25.9041 1.191 27.4595 3.38093H29.9943L28.3812 5.09087Z" fill="#0D1B1E"/>
</g>
<defs>
<clipPath id="clip0_0_107">
<rect width="197" height="35" fill="white"/>
</clipPath>
</defs>
</svg>
